<svg id="Layer_1" data-name="Layer 1" xmlns="http://www.w3.org/2000/svg" viewBox="0 0 400 400"><defs><style>.cls-1{fill:#fff;}</style></defs><title>contacto</title><circle class="cls-1" cx="199.55" cy="200.99" r="198.94"/><path d="M287.14,133.84a15.77,15.77,0,0,0-15.74-15.74H123.74A15.77,15.77,0,0,0,108,133.84v105a15.77,15.77,0,0,0,15.74,15.74H271.4a15.77,15.77,0,0,0,15.74-15.74ZM118.5,136,169,186.08,118.5,236.63Zm79.41,63.95L126,128.59H269.22Zm-21.4-6.44L194.23,211a5.25,5.25,0,0,0,7.41,0l17.28-17.28,50.31,50.31H125.92Zm49.83-7.15L276.64,136V236.63Z"/></svg>