<svg id="Layer_1" data-name="Layer 1" xmlns="http://www.w3.org/2000/svg" viewBox="0 0 400 400"><defs><style>.cls-1{fill:#fff;}</style></defs><title>contacto</title><circle class="cls-1" cx="199.72" cy="199.97" r="198.94"/><path d="M287.31,236.14a8.25,8.25,0,0,1-2.53,7.22l-24,23.84a13.54,13.54,0,0,1-4.24,3.07,17.56,17.56,0,0,1-5.15,1.63q-.18,0-1.09.09t-2.35.09a83.36,83.36,0,0,1-11.11-1.17q-7.68-1.17-18.79-5.78a157.84,157.84,0,0,1-25.2-13.82q-14.09-9.21-30-25.29a198,198,0,0,1-21-23.84,169.83,169.83,0,0,1-13.37-21,113.16,113.16,0,0,1-7.59-17.52,92.92,92.92,0,0,1-3.43-13.55,44.66,44.66,0,0,1-.72-8.94q.18-3.25.18-3.61a17.55,17.55,0,0,1,1.63-5.15,13.52,13.52,0,0,1,3.07-4.24l24-24a8,8,0,0,1,5.78-2.53,6.73,6.73,0,0,1,4.15,1.35,12.57,12.57,0,0,1,3.07,3.34L178,142.93a8.79,8.79,0,0,1,.9,6.32,11.25,11.25,0,0,1-3.07,5.78L167,163.88a3,3,0,0,0-.63,1.17,4.47,4.47,0,0,0-.27,1.35,32.58,32.58,0,0,0,3.25,8.67A79.63,79.63,0,0,0,176,185.65,117.36,117.36,0,0,0,188.87,200a119.57,119.57,0,0,0,14.45,12.92,83.41,83.41,0,0,0,10.57,6.77,28.17,28.17,0,0,0,6.5,2.62l2.26.45a4.32,4.32,0,0,0,1.17-.27,3,3,0,0,0,1.17-.63l10.3-10.48a11.07,11.07,0,0,1,7.59-2.89,9.44,9.44,0,0,1,4.88,1.08h.18l34.86,20.59a9.09,9.09,0,0,1,4.52,6Zm0,0"/></svg>