<?xml version="1.0" encoding="utf-8"?>
<!-- Generator: Adobe Illustrator 16.0.0, SVG Export Plug-In . SVG Version: 6.00 Build 0)  -->
<!DOCTYPE svg PUBLIC "-//W3C//DTD SVG 1.1//EN" "http://www.w3.org/Graphics/SVG/1.1/DTD/svg11.dtd">
<svg version="1.1" id="Layer_1" xmlns="http://www.w3.org/2000/svg" xmlns:xlink="http://www.w3.org/1999/xlink" x="0px" y="0px"
	 width="43px" height="43px" viewBox="0 0 43 43" enable-background="new 0 0 43 43" xml:space="preserve">
<g>
	<path fill="#EDEDED" d="M42.248,21.249C42.248,9.808,32.94,0.5,21.5,0.5c-5.38,0-10.481,2.051-14.362,5.774
		c-0.49,0.471-0.506,1.249-0.036,1.739c0.47,0.49,1.248,0.506,1.738,0.036c3.421-3.282,7.917-5.089,12.66-5.089
		c10.085,0,18.289,8.204,18.289,18.29c0,4.585-1.706,8.973-4.806,12.353c-3.457,3.772-8.372,5.936-13.483,5.936
		c-4.903,0-9.627-1.991-13.056-5.484c0.021-0.088,0.043-0.175,0.065-0.262c0.018-0.069,0.035-0.139,0.053-0.208
		c0.029-0.104,0.061-0.208,0.093-0.312c0.019-0.061,0.036-0.123,0.056-0.184c0.038-0.119,0.08-0.236,0.123-0.354
		c0.016-0.045,0.029-0.089,0.046-0.133c0.119-0.322,0.252-0.637,0.398-0.943c0.021-0.046,0.045-0.091,0.068-0.137
		c0.052-0.105,0.104-0.213,0.159-0.317c0.03-0.055,0.061-0.109,0.09-0.164c0.051-0.093,0.102-0.187,0.155-0.277
		c0.034-0.059,0.071-0.116,0.106-0.175c0.052-0.085,0.103-0.171,0.157-0.255c0.039-0.06,0.079-0.117,0.119-0.177
		c0.053-0.08,0.106-0.161,0.162-0.24c0.042-0.059,0.085-0.116,0.128-0.175c0.056-0.077,0.111-0.153,0.169-0.228
		c0.044-0.059,0.092-0.116,0.138-0.174c0.058-0.072,0.116-0.145,0.175-0.216c0.048-0.057,0.098-0.113,0.146-0.17
		c0.06-0.068,0.121-0.138,0.183-0.206c0.05-0.055,0.102-0.109,0.154-0.164c0.062-0.066,0.126-0.132,0.189-0.196
		c0.053-0.054,0.107-0.105,0.162-0.159c0.065-0.062,0.13-0.125,0.196-0.187c0.056-0.052,0.113-0.102,0.17-0.152
		c0.067-0.06,0.134-0.119,0.203-0.178c0.058-0.05,0.117-0.099,0.176-0.146c0.069-0.057,0.139-0.113,0.209-0.168
		c0.06-0.048,0.122-0.094,0.183-0.14c0.072-0.054,0.143-0.106,0.216-0.158c0.063-0.045,0.125-0.089,0.19-0.132
		c0.073-0.051,0.147-0.101,0.222-0.149c0.064-0.042,0.129-0.084,0.195-0.125c0.075-0.047,0.151-0.094,0.229-0.139
		c0.066-0.039,0.133-0.079,0.201-0.117c0.078-0.044,0.155-0.087,0.234-0.13c0.069-0.037,0.137-0.073,0.207-0.108
		c0.079-0.041,0.159-0.08,0.239-0.119c0.071-0.034,0.14-0.068,0.21-0.101c0.082-0.037,0.164-0.073,0.247-0.109
		c0.071-0.031,0.142-0.062,0.213-0.092c0.084-0.034,0.168-0.066,0.252-0.099c0.073-0.028,0.145-0.057,0.218-0.083
		c0.086-0.031,0.172-0.06,0.259-0.089c0.073-0.024,0.146-0.05,0.221-0.072c0.087-0.027,0.176-0.054,0.265-0.079
		c0.073-0.021,0.147-0.043,0.222-0.062c0.09-0.024,0.182-0.046,0.273-0.068c0.074-0.018,0.148-0.037,0.223-0.053
		c0.093-0.021,0.187-0.039,0.282-0.057c0.073-0.015,0.146-0.031,0.221-0.044c0.097-0.017,0.195-0.031,0.292-0.046
		c0.073-0.011,0.145-0.023,0.218-0.033c0.103-0.014,0.207-0.023,0.31-0.034c0.069-0.007,0.137-0.016,0.206-0.022
		c0.115-0.01,0.231-0.017,0.347-0.023c0.059-0.003,0.116-0.009,0.175-0.011c0.174-0.008,0.351-0.013,0.526-0.013h3.027
		c3.552,0,6.887,1.576,9.149,4.323c0.432,0.523,1.206,0.599,1.73,0.167c0.523-0.432,0.599-1.206,0.167-1.73
		c-1.928-2.342-4.502-3.977-7.357-4.736c1.625-1.44,2.652-3.541,2.652-5.878c0-4.332-3.523-7.855-7.855-7.855
		s-7.855,3.524-7.855,7.855c0,2.337,1.028,4.438,2.653,5.878c-0.04,0.011-0.081,0.021-0.122,0.032
		c-0.168,0.046-0.335,0.096-0.501,0.148c-0.021,0.007-0.042,0.012-0.062,0.019c-0.187,0.06-0.371,0.123-0.554,0.19
		c-0.057,0.021-0.113,0.043-0.17,0.064c-0.125,0.049-0.25,0.097-0.375,0.147c-0.069,0.029-0.136,0.059-0.204,0.088
		c-0.111,0.048-0.222,0.097-0.331,0.147c-0.071,0.033-0.142,0.066-0.213,0.102c-0.105,0.05-0.209,0.103-0.313,0.154
		c-0.07,0.036-0.14,0.073-0.209,0.11c-0.104,0.056-0.207,0.112-0.31,0.171c-0.066,0.038-0.133,0.075-0.199,0.113
		c-0.108,0.064-0.214,0.13-0.32,0.195c-0.058,0.036-0.117,0.071-0.174,0.108c-0.132,0.085-0.261,0.172-0.39,0.261
		c-0.03,0.021-0.06,0.04-0.089,0.061c-0.158,0.11-0.313,0.225-0.465,0.341c-0.045,0.034-0.087,0.069-0.131,0.104
		c-0.108,0.085-0.215,0.17-0.32,0.257c-0.056,0.046-0.111,0.094-0.166,0.141c-0.091,0.079-0.182,0.157-0.272,0.238
		c-0.058,0.052-0.115,0.104-0.171,0.157c-0.085,0.079-0.169,0.158-0.252,0.24c-0.056,0.056-0.112,0.11-0.168,0.167
		c-0.082,0.082-0.163,0.166-0.242,0.252c-0.053,0.056-0.106,0.111-0.159,0.169c-0.083,0.091-0.164,0.183-0.244,0.275
		c-0.046,0.054-0.093,0.105-0.139,0.159c-0.094,0.112-0.187,0.228-0.278,0.344c-0.028,0.036-0.058,0.071-0.086,0.106
		c-0.117,0.153-0.233,0.308-0.345,0.466c-0.03,0.041-0.059,0.084-0.087,0.127c-0.082,0.117-0.163,0.234-0.24,0.354
		c-0.04,0.061-0.077,0.123-0.116,0.184c-0.065,0.104-0.13,0.208-0.193,0.313c-0.041,0.067-0.079,0.136-0.118,0.204
		c-0.059,0.102-0.116,0.204-0.172,0.309c-0.038,0.07-0.076,0.142-0.113,0.213c-0.055,0.104-0.107,0.21-0.159,0.316
		c-0.035,0.07-0.069,0.144-0.104,0.215c-0.052,0.111-0.102,0.225-0.152,0.338c-0.029,0.068-0.06,0.136-0.088,0.204
		c-0.055,0.132-0.108,0.266-0.159,0.4c-0.019,0.051-0.04,0.101-0.06,0.152c-0.002,0.008-0.005,0.015-0.009,0.022
		c-2.169-3.07-3.344-6.738-3.344-10.543c0-0.68-0.551-1.229-1.229-1.229s-1.229,0.55-1.229,1.229c0,5.203,1.937,10.18,5.452,14.015
		c3.922,4.279,9.498,6.732,15.296,6.732c5.799,0,11.374-2.453,15.297-6.732l0.001-0.001C40.312,31.428,42.248,26.451,42.248,21.249
		L42.248,21.249z M21.5,11.638c2.976,0,5.396,2.42,5.396,5.396c0,2.975-2.421,5.396-5.396,5.396s-5.396-2.421-5.396-5.396
		C16.104,14.059,18.524,11.638,21.5,11.638L21.5,11.638z M21.5,11.638"/>
</g>
</svg>
