<?xml version="1.0" encoding="utf-8"?>
<!-- Generator: Adobe Illustrator 16.0.0, SVG Export Plug-In . SVG Version: 6.00 Build 0)  -->
<!DOCTYPE svg PUBLIC "-//W3C//DTD SVG 1.1//EN" "http://www.w3.org/Graphics/SVG/1.1/DTD/svg11.dtd">
<svg version="1.1" id="Layer_1" xmlns="http://www.w3.org/2000/svg" xmlns:xlink="http://www.w3.org/1999/xlink" x="0px" y="0px"
	 width="18px" height="18px" viewBox="0 0 18 18" enable-background="new 0 0 18 18" xml:space="preserve">
<g>
	<path d="M17.014,5.61c-0.918-2.141-2.479-3.698-4.639-4.619c-1.076-0.459-2.207-0.695-3.39-0.695c-1.181,0-2.303,0.233-3.38,0.695
		C3.464,1.91,1.897,3.465,0.977,5.61c-0.461,1.075-0.686,2.2-0.686,3.382c0,1.181,0.225,2.316,0.686,3.388
		c0.92,2.146,2.488,3.711,4.628,4.631c1.077,0.463,2.199,0.693,3.38,0.693c1.183,0,2.313-0.234,3.39-0.693
		c2.16-0.92,3.721-2.488,4.639-4.631c0.463-1.076,0.695-2.207,0.695-3.388C17.709,7.81,17.479,6.687,17.014,5.61L17.014,5.61z
		 M15.625,12.839c-0.684,1.174-1.621,2.104-2.801,2.791c-1.172,0.682-2.457,1.027-3.839,1.027c-1.037,0-2.028-0.199-2.971-0.609
		c-0.943-0.41-1.756-0.947-2.438-1.627c-0.68-0.684-1.223-1.504-1.628-2.449c-0.404-0.941-0.6-1.942-0.6-2.98
		c0-1.381,0.338-2.66,1.019-3.829C3.049,3.99,3.986,3.058,5.158,2.372c1.17-0.686,2.448-1.028,3.828-1.028
		c1.382,0,2.665,0.346,3.839,1.028c1.178,0.688,2.113,1.619,2.801,2.791c0.686,1.17,1.027,2.448,1.027,3.829
		C16.652,10.372,16.311,11.659,15.625,12.839L15.625,12.839z M15.625,12.839"/>
	<path d="M9.538,8.916V3.981c0-0.296-0.257-0.535-0.553-0.535c-0.276,0-0.523,0.239-0.523,0.535v5.01c0,0.008,0.02,0.047,0.02,0.075
		C8.462,9.239,8.509,9.38,8.625,9.496l2.848,2.847c0.189,0.191,0.543,0.191,0.732,0c0.219-0.219,0.205-0.535,0-0.742L9.538,8.916z
		 M9.538,8.916"/>
</g>
</svg>
