<?xml version="1.0" encoding="utf-8"?>
<!-- Generator: Adobe Illustrator 16.0.0, SVG Export Plug-In . SVG Version: 6.00 Build 0)  -->
<!DOCTYPE svg PUBLIC "-//W3C//DTD SVG 1.1//EN" "http://www.w3.org/Graphics/SVG/1.1/DTD/svg11.dtd">
<svg version="1.1" id="Layer_1" xmlns="http://www.w3.org/2000/svg" xmlns:xlink="http://www.w3.org/1999/xlink" x="0px" y="0px"
	 width="26px" height="26px" viewBox="0 0 26 26" enable-background="new 0 0 26 26" xml:space="preserve">
<g>
	<path fill="#AAAAAA" d="M13,0.426c-4.544,0-8.241,3.695-8.241,8.236c0,4.365,7.489,16.174,7.809,16.674
		c0.094,0.148,0.257,0.238,0.433,0.238s0.339-0.09,0.433-0.238c0.319-0.5,7.809-12.309,7.809-16.674
		C21.241,4.121,17.544,0.426,13,0.426L13,0.426z M13,24.093c-0.678-1.097-2.053-3.366-3.415-5.881c-2.486-4.59-3.8-7.892-3.8-9.55
		c0-3.976,3.236-7.21,7.215-7.21s7.215,3.234,7.215,7.21c0,1.658-1.313,4.96-3.8,9.55C15.054,20.726,13.678,22.996,13,24.093
		L13,24.093z M13,24.093"/>
	<path fill="#AAAAAA" d="M13,4.33c-2.15,0-3.898,1.702-3.898,3.792c0,2.091,1.749,3.792,3.898,3.792
		c2.149,0,3.898-1.701,3.898-3.792C16.898,6.032,15.149,4.33,13,4.33L13,4.33z M13,10.889c-1.583,0-2.872-1.241-2.872-2.766
		c0-1.525,1.289-2.766,2.872-2.766c1.583,0,2.872,1.24,2.872,2.766C15.872,9.647,14.583,10.889,13,10.889L13,10.889z M13,10.889"/>
</g>
</svg>
