<?xml version="1.0" encoding="utf-8"?>
<!-- Generator: Adobe Illustrator 16.0.0, SVG Export Plug-In . SVG Version: 6.00 Build 0)  -->
<!DOCTYPE svg PUBLIC "-//W3C//DTD SVG 1.1//EN" "http://www.w3.org/Graphics/SVG/1.1/DTD/svg11.dtd">
<svg version="1.1" id="Layer_1" xmlns="http://www.w3.org/2000/svg" xmlns:xlink="http://www.w3.org/1999/xlink" x="0px" y="0px"
	 width="23px" height="23px" viewBox="0 0 23 23" enable-background="new 0 0 23 23" xml:space="preserve">
<g>
	<path fill="#020400" d="M7.784,10.089c0,0.259-0.211,0.468-0.47,0.468c-0.258,0-0.468-0.209-0.468-0.468
		c0-0.261,0.21-0.47,0.468-0.47C7.573,9.62,7.784,9.829,7.784,10.089L7.784,10.089z M7.784,10.089"/>
	<path fill="#020400" d="M10.597,10.089c0,0.259-0.209,0.468-0.468,0.468c-0.259,0-0.47-0.209-0.47-0.468
		c0-0.261,0.211-0.47,0.47-0.47C10.388,9.62,10.597,9.829,10.597,10.089L10.597,10.089z M10.597,10.089"/>
	<path fill="#020400" d="M13.411,10.089c0,0.259-0.209,0.468-0.47,0.468c-0.259,0-0.468-0.209-0.468-0.468
		c0-0.261,0.209-0.47,0.468-0.47C13.202,9.62,13.411,9.829,13.411,10.089L13.411,10.089z M13.411,10.089"/>
	<path fill="#020400" d="M4.97,12.901c0,0.261-0.211,0.47-0.47,0.47c-0.258,0-0.468-0.209-0.468-0.47
		c0-0.259,0.21-0.468,0.468-0.468C4.759,12.434,4.97,12.643,4.97,12.901L4.97,12.901z M4.97,12.901"/>
	<path fill="#020400" d="M7.784,12.901c0,0.261-0.211,0.47-0.47,0.47c-0.258,0-0.468-0.209-0.468-0.47
		c0-0.259,0.21-0.468,0.468-0.468C7.573,12.434,7.784,12.643,7.784,12.901L7.784,12.901z M7.784,12.901"/>
	<path fill="#020400" d="M10.597,12.901c0,0.261-0.21,0.47-0.468,0.47c-0.259,0-0.47-0.209-0.47-0.47
		c0-0.259,0.211-0.468,0.47-0.468C10.387,12.434,10.597,12.643,10.597,12.901L10.597,12.901z M10.597,12.901"/>
	<path fill="#020400" d="M13.411,12.901c0,0.261-0.209,0.47-0.47,0.47c-0.259,0-0.468-0.209-0.468-0.47
		c0-0.259,0.209-0.468,0.468-0.468C13.202,12.434,13.411,12.643,13.411,12.901L13.411,12.901z M13.411,12.901"/>
	<path fill="#020400" d="M19.038,12.901c0,0.261-0.209,0.47-0.467,0.47c-0.26,0-0.471-0.209-0.471-0.47
		c0-0.259,0.211-0.468,0.471-0.468C18.829,12.434,19.038,12.643,19.038,12.901L19.038,12.901z M19.038,12.901"/>
	<path fill="#020400" d="M16.226,10.089c0,0.259-0.211,0.468-0.471,0.468c-0.259,0-0.468-0.209-0.468-0.468
		c0-0.261,0.209-0.47,0.468-0.47C16.015,9.62,16.226,9.829,16.226,10.089L16.226,10.089z M16.226,10.089"/>
	<path fill="#020400" d="M19.038,10.089c0,0.259-0.209,0.468-0.467,0.468c-0.26,0-0.471-0.209-0.471-0.468
		c0-0.261,0.211-0.47,0.471-0.47C18.829,9.62,19.038,9.829,19.038,10.089L19.038,10.089z M19.038,10.089"/>
	<path fill="#020400" d="M4.97,15.716c0,0.259-0.211,0.47-0.47,0.47c-0.258,0-0.468-0.211-0.468-0.47
		c0-0.258,0.21-0.469,0.468-0.469C4.759,15.247,4.97,15.458,4.97,15.716L4.97,15.716z M4.97,15.716"/>
	<path fill="#020400" d="M7.784,15.716c0,0.259-0.211,0.47-0.47,0.47c-0.258,0-0.468-0.211-0.468-0.47
		c0-0.258,0.21-0.469,0.468-0.469C7.573,15.247,7.784,15.458,7.784,15.716L7.784,15.716z M7.784,15.716"/>
	<path fill="#020400" d="M10.597,15.716c0,0.259-0.209,0.47-0.468,0.47c-0.259,0-0.47-0.211-0.47-0.47
		c0-0.258,0.211-0.469,0.47-0.469C10.388,15.247,10.597,15.458,10.597,15.716L10.597,15.716z M10.597,15.716"/>
	<path fill="#020400" d="M13.411,15.716c0,0.259-0.209,0.47-0.47,0.47c-0.259,0-0.468-0.211-0.468-0.47
		c0-0.258,0.209-0.469,0.468-0.469C13.202,15.247,13.411,15.458,13.411,15.716L13.411,15.716z M13.411,15.716"/>
	<path fill="#020400" d="M16.226,15.716c0,0.259-0.211,0.47-0.471,0.47c-0.259,0-0.468-0.211-0.468-0.47
		c0-0.258,0.209-0.469,0.468-0.469C16.015,15.247,16.226,15.458,16.226,15.716L16.226,15.716z M16.226,15.716"/>
	<path fill="#020400" d="M19.038,15.716c0,0.259-0.209,0.47-0.467,0.47c-0.26,0-0.471-0.211-0.471-0.47
		c0-0.258,0.211-0.469,0.471-0.469C18.829,15.247,19.038,15.458,19.038,15.716L19.038,15.716z M19.038,15.716"/>
	<path fill="#020400" d="M4.97,18.531c0,0.257-0.211,0.468-0.47,0.468c-0.258,0-0.468-0.211-0.468-0.468
		c0-0.26,0.21-0.47,0.468-0.47C4.759,18.062,4.97,18.271,4.97,18.531L4.97,18.531z M4.97,18.531"/>
	<path fill="#020400" d="M7.784,18.531c0,0.257-0.211,0.468-0.47,0.468c-0.258,0-0.468-0.211-0.468-0.468
		c0-0.26,0.21-0.47,0.468-0.47C7.573,18.062,7.784,18.271,7.784,18.531L7.784,18.531z M7.784,18.531"/>
	<path fill="#020400" d="M10.597,18.531c0,0.257-0.209,0.468-0.468,0.468c-0.259,0-0.47-0.211-0.47-0.468
		c0-0.26,0.211-0.47,0.47-0.47C10.388,18.062,10.597,18.271,10.597,18.531L10.597,18.531z M10.597,18.531"/>
	<path fill="#020400" d="M13.411,18.531c0,0.257-0.209,0.468-0.47,0.468c-0.259,0-0.468-0.211-0.468-0.468
		c0-0.26,0.209-0.47,0.468-0.47C13.202,18.062,13.411,18.271,13.411,18.531L13.411,18.531z M13.411,18.531"/>
	<g>
		<path fill="#020400" d="M15.755,14.31c0.777,0,1.408-0.631,1.408-1.408c0-0.775-0.631-1.406-1.408-1.406
			c-0.775,0-1.405,0.63-1.405,1.406C14.35,13.679,14.979,14.31,15.755,14.31L15.755,14.31z M15.755,12.434
			c0.26,0,0.471,0.21,0.471,0.468c0,0.26-0.211,0.47-0.471,0.47c-0.257,0-0.468-0.21-0.468-0.47
			C15.287,12.644,15.498,12.434,15.755,12.434L15.755,12.434z M15.755,12.434"/>
		<path fill="#020400" d="M20.914,2.125h-0.937V1.657c0-0.777-0.63-1.408-1.406-1.408c-0.779,0-1.408,0.63-1.408,1.408v0.468H5.908
			V1.657c0-0.777-0.63-1.408-1.408-1.408c-0.776,0-1.406,0.63-1.406,1.408v0.468H2.156c-1.037,0-1.876,0.841-1.876,1.876v16.874
			c0,1.036,0.839,1.876,1.876,1.876h18.758c1.036,0,1.876-0.84,1.876-1.876V4.001C22.79,2.966,21.95,2.125,20.914,2.125
			L20.914,2.125z M18.101,3.063V1.657c0-0.259,0.21-0.47,0.471-0.47c0.258,0,0.467,0.21,0.467,0.47v1.876
			c0,0.259-0.209,0.468-0.467,0.468c-0.26,0-0.471-0.209-0.471-0.468V3.063z M4.032,3.063V1.657c0-0.259,0.209-0.47,0.468-0.47
			c0.259,0,0.47,0.21,0.47,0.47v1.876c0,0.259-0.211,0.468-0.47,0.468c-0.259,0-0.468-0.209-0.468-0.468V3.063z M21.854,20.875
			c0,0.519-0.421,0.938-0.939,0.938H2.156c-0.518,0-0.938-0.42-0.938-0.938V6.806h20.636V20.875z M21.854,5.868H1.218V4.001
			c0-0.517,0.42-0.938,0.938-0.938h0.938v0.47c0,0.777,0.63,1.406,1.406,1.406c0.777,0,1.408-0.629,1.408-1.406v-0.47h11.255v0.47
			c0,0.777,0.629,1.406,1.408,1.406c0.776,0,1.406-0.629,1.406-1.406v-0.47h0.937c0.519,0,0.939,0.421,0.939,0.938V5.868z
			 M21.854,5.868"/>
	</g>
</g>
</svg>
