<?xml version="1.0" encoding="utf-8"?>
<!-- Generator: Adobe Illustrator 21.1.0, SVG Export Plug-In . SVG Version: 6.00 Build 0)  -->
<svg version="1.1" id="Layer_1" xmlns="http://www.w3.org/2000/svg" xmlns:xlink="http://www.w3.org/1999/xlink" x="0px" y="0px"
	 viewBox="0 0 30 30" style="enable-background:new 0 0 30 30;" xml:space="preserve">
<style type="text/css">
	.st0{fill:#D51E39;}
</style>
<image style="display:none;overflow:visible;" width="737" height="167" xlink:href="logo.png"  transform="matrix(0.24 0 0 0.24 -73 -5)">
</image>
<g>
	<path d="M-9.3,7.8l-0.8,4.4h-3L-15,22.9h-4.4l1.9-10.7h-3l0.8-4.4H-9.3z"/>
	<path d="M-8.1,10.9h5.7l-0.6,3.4h-0.9l-0.9,5.2H-4l-0.6,3.4h-5.7l0.6-3.4h0.9l0.9-5.2h-0.9L-8.1,10.9z"/>
	<path d="M7.7,16.5c-0.2,0.6-0.5,1.1-0.9,1.6C6.5,18.6,6,19,5.5,19.4c-0.5,0.4-1,0.6-1.6,0.8c-0.6,0.2-1.2,0.3-1.8,0.3
		c-0.1,0-0.2,0-0.3,0c-0.1,0-0.2,0-0.3,0l-0.4,2.4h-3.9l2.1-12H3c0.8,0,1.5,0.1,2.2,0.3c0.7,0.2,1.2,0.5,1.7,0.9
		c0.4,0.4,0.8,0.9,1,1.5c0.2,0.6,0.2,1.2,0.1,2C7.9,15.9,7.8,16.2,7.7,16.5z M3.9,15.7c0-0.2,0-0.5-0.2-0.6
		c-0.2-0.2-0.4-0.3-0.6-0.3H2.6l-0.3,1.8h0.6c0.3,0,0.5-0.1,0.7-0.3C3.7,16.2,3.9,16,3.9,15.7z"/>
	<path d="M14.6,10.8c0.6,0,1.2,0,1.8,0.1c0.6,0.1,1.2,0.2,1.9,0.5c0,0.2-0.1,0.3-0.1,0.4c0,0.1,0,0.2-0.1,0.3c0,0.2-0.1,0.4-0.2,0.9
		c-0.1,0.4-0.2,1.1-0.5,2c-0.4-0.1-0.7-0.3-1.1-0.4c-0.3-0.1-0.7-0.2-1.1-0.3c-0.3-0.1-0.5-0.1-0.7,0c-0.2,0-0.4,0.1-0.5,0.1
		c-0.1,0.1-0.1,0.1-0.1,0.2c0,0.1,0.2,0.1,0.4,0.2l1.4,0.6c0.4,0.2,0.7,0.3,1,0.6c0.3,0.2,0.6,0.5,0.8,0.8c0.2,0.3,0.4,0.6,0.4,1
		s0.1,0.7,0,1.2c-0.1,0.6-0.3,1.1-0.6,1.6c-0.3,0.5-0.7,0.9-1.1,1.2c-0.4,0.4-0.9,0.6-1.5,0.9c-0.5,0.2-1.1,0.4-1.7,0.4
		c-0.1,0-0.2,0-0.4,0c-0.2,0-0.3,0-0.5,0c-0.4,0-0.7,0-1,0c-0.3,0-0.6-0.1-0.8-0.1c-0.3-0.1-0.5-0.2-0.9-0.3
		c-0.3-0.1-0.8-0.3-1.3-0.5l1.5-3.8c0.3,0.1,0.6,0.2,0.8,0.3c0.3,0.1,0.5,0.2,0.8,0.3c0.3,0.1,0.5,0.2,0.8,0.3
		c0.3,0.1,0.6,0.1,0.9,0.2c0.1,0,0.2,0,0.3-0.1c0.1,0,0.2-0.1,0.2-0.2c0-0.1,0-0.2-0.1-0.3c-0.1-0.1-0.1-0.1-0.2-0.2
		c-0.1-0.1-0.2-0.1-0.3-0.1c-0.1,0-0.2-0.1-0.3-0.1c-0.5-0.1-1-0.3-1.4-0.6c-0.4-0.3-0.7-0.6-1-1C10,16.4,9.8,16,9.7,15.6
		c-0.1-0.4-0.1-0.9-0.1-1.3c0.1-0.7,0.5-1.4,1-2c0.6-0.6,1.3-1,2.4-1.3c0.3-0.1,0.5-0.1,0.8-0.2C14.1,10.8,14.3,10.8,14.6,10.8z"/>
	<path class="st0" d="M28.8,10.9l-0.7,3.8h-2.4l-1.4,8.2h-3.9l1.4-8.2h-2.4l0.7-3.8H28.8z"/>
	<path class="st0" d="M37.7,19.3l-0.6,3.6h-8.8l2.1-12h8.8l-0.6,3.6h-4.9l-0.1,0.8h4.1l-0.5,3.1H33l-0.1,0.8H37.7z"/>
	<path class="st0" d="M49.4,22.9h-4.2c-0.5-0.9-0.8-1.5-1.1-2c-0.3-0.4-0.5-0.7-0.6-0.9c-0.1-0.1-0.2-0.2-0.2-0.1
		c0,0-0.1,0.1-0.1,0.2l-0.5,2.8h-3.9l2.1-12h4.8c0.6,0,1.1,0.1,1.6,0.4c0.5,0.3,0.9,0.6,1.2,1c0.4,0.4,0.6,0.9,0.8,1.5
		c0.1,0.5,0.1,1.1,0,1.7c-0.1,0.6-0.3,1.2-0.6,1.7c-0.3,0.6-0.8,1.1-1.3,1.5L49.4,22.9z M45.6,15.4c0-0.3,0-0.5-0.2-0.6
		c-0.1-0.2-0.4-0.3-0.6-0.3h-0.6l-0.3,1.8h0.6c0.3,0,0.5-0.1,0.7-0.3C45.4,15.9,45.5,15.6,45.6,15.4z"/>
</g>
</svg>
