<?xml version="1.0" encoding="utf-8"?>
<!-- Generator: Adobe Illustrator 21.1.0, SVG Export Plug-In . SVG Version: 6.00 Build 0)  -->
<svg version="1.1" id="Layer_1" xmlns="http://www.w3.org/2000/svg" xmlns:xlink="http://www.w3.org/1999/xlink" x="0px" y="0px"
	 viewBox="0 0 600 600" style="enable-background:new 0 0 600 600;" xml:space="preserve">
<style type="text/css">
	.st0{fill:#D51E39;}
	.st1{fill:#F2E6D7;}
	.st2{fill:none;stroke:#F2E6D7;stroke-width:5;stroke-linecap:round;stroke-linejoin:round;stroke-miterlimit:10;}
	.st3{fill:#F4AA0C;stroke:#93693A;stroke-width:5;stroke-linecap:round;stroke-linejoin:round;stroke-miterlimit:10;}
	.st4{fill:#F4AA0C;stroke:#F2E6D7;stroke-width:5;stroke-linecap:round;stroke-linejoin:round;stroke-miterlimit:10;}
	.st5{fill:#D60037;}
	.st6{fill-rule:evenodd;clip-rule:evenodd;}
	.st7{clip-path:url(#SVGID_2_);}
</style>
<g>
	<path d="M167.1,467l-4.4,24.7h-16.9l-10.7,60.5h-24.7l10.7-60.5h-17l4.4-24.7H167.1z"/>
	<path d="M173.8,484.7h31.9l-3.4,19h-4.9l-5.2,29.4h4.9l-3.4,19h-31.9l3.4-19h4.8l5.2-29.4h-4.8L173.8,484.7z"/>
	<path d="M262.9,515.9c-1.1,3.3-2.7,6.3-4.8,9.2c-2.2,2.8-4.7,5.3-7.5,7.3c-2.8,2-5.9,3.6-9.2,4.8c-3.3,1.1-6.7,1.7-10.1,1.7
		c-0.4,0-0.9,0-1.5,0c-0.6,0-1.1,0-1.5-0.1l-2.4,13.5h-22.1l11.9-67.5h20.9c4.5,0,8.6,0.6,12.3,1.8c3.7,1.2,6.8,2.9,9.3,5.1
		c2.5,2.2,4.3,5,5.4,8.3c1.1,3.3,1.3,7,0.6,11.2C263.8,512.8,263.4,514.4,262.9,515.9z M241.6,511.7c0.2-1.4-0.1-2.6-0.9-3.5
		c-0.8-1-2-1.5-3.5-1.5h-3.3l-1.8,10.1h3.3c1.5,0,2.8-0.5,4-1.5C240.6,514.4,241.3,513.2,241.6,511.7z"/>
	<path d="M301.6,484c3.3-0.1,6.6,0.1,10,0.5c3.4,0.4,6.9,1.3,10.6,2.6c-0.2,0.9-0.4,1.6-0.6,2.2c-0.1,0.6-0.3,1.2-0.4,1.8
		c-0.2,0.9-0.5,2.5-1,4.9c-0.5,2.4-1.4,6.2-2.6,11.3c-2.1-0.8-4.1-1.5-6-2.2c-1.9-0.7-4-1.3-6.4-1.6c-1.6-0.3-3-0.4-4.2-0.2
		c-1.2,0.2-2.1,0.4-2.6,0.8c-0.5,0.4-0.7,0.8-0.5,1.3c0.2,0.5,0.9,0.8,2,1.1l7.8,3.2c2.2,0.9,4.2,1.9,5.9,3.2
		c1.7,1.3,3.2,2.8,4.4,4.4c1.2,1.6,2,3.5,2.5,5.5c0.5,2,0.5,4.2,0.1,6.5c-0.5,3.3-1.6,6.3-3.2,8.9c-1.6,2.7-3.7,5-6.1,7
		c-2.4,2-5.1,3.6-8.2,4.8c-3.1,1.2-6.3,2-9.7,2.4c-0.5,0.1-1.2,0.1-2.1,0.2c-0.9,0-1.9,0.1-2.8,0.1c-2,0.1-3.8,0-5.6-0.1
		c-1.8-0.2-3.3-0.4-4.7-0.6c-1.4-0.4-3.1-0.9-5-1.5c-1.9-0.6-4.4-1.5-7.6-2.6l8.7-21.5c1.6,0.5,3.2,1,4.7,1.6c1.5,0.6,3,1.2,4.5,1.8
		c1.5,0.6,3,1.2,4.6,1.6c1.6,0.5,3.2,0.8,5,1.1c0.6-0.1,1.2-0.2,1.7-0.5c0.5-0.2,0.9-0.7,1.2-1.3c0.1-0.5,0-1-0.3-1.4
		c-0.3-0.4-0.7-0.7-1.2-1.1c-0.5-0.3-1.1-0.6-1.7-0.8c-0.6-0.2-1.2-0.4-1.7-0.6c-2.9-0.7-5.5-1.9-7.9-3.5c-2.3-1.6-4.2-3.5-5.7-5.6
		c-1.5-2.1-2.6-4.4-3.2-6.8c-0.6-2.4-0.7-4.9-0.3-7.3c0.6-4.1,2.5-7.8,5.7-11.3c3.2-3.4,7.6-5.8,13.3-7.2c1.5-0.4,2.9-0.7,4.3-0.9
		C298.8,484.1,300.2,484,301.6,484z"/>
	<path class="st0" d="M382,484.7l-3.7,21.2h-13.5l-8.2,46.3h-22.1l8.2-46.3H329l3.7-21.2H382z"/>
	<path class="st0" d="M432,531.8l-3.6,20.5h-49.6l11.9-67.4h49.6l-3.6,20.5h-27.5l-0.8,4.6h23l-3.1,17.4h-23l-0.8,4.5H432z"/>
	<path class="st0" d="M497.9,552.2h-23.7c-2.6-4.9-4.6-8.6-6.1-11c-1.5-2.4-2.5-4-3.3-4.8c-0.7-0.8-1.2-1.1-1.4-0.8
		c-0.2,0.3-0.3,0.6-0.4,0.9l-2.8,15.8h-22.1l11.9-67.5h27c3.2,0,6.2,0.7,9,2.1c2.8,1.4,5.1,3.3,6.9,5.5c2.1,2.4,3.5,5.2,4.2,8.3
		c0.7,3.1,0.8,6.2,0.3,9.5c-0.6,3.3-1.8,6.5-3.7,9.8c-1.9,3.2-4.3,6.1-7.2,8.7L497.9,552.2z M476.2,509.9c0.2-1.4,0-2.6-0.9-3.6
		c-0.8-1-2-1.5-3.5-1.5h-3.4l-1.8,10.3h3.4c1.5,0,2.8-0.5,4-1.5C475.2,512.5,475.9,511.3,476.2,509.9z"/>
</g>
<g>
	<g>
		<path class="st1" d="M198.2,348.2c-1.1-1.1-2.1-2.3-3.2-3.5l21.8-19.1c0.8,0.9,1.7,1.9,2.5,2.8L198.2,348.2z M404.8,350.3
			L384,330.1c0.9-0.9,1.7-1.8,2.6-2.7l21.4,19.5C407,348,405.9,349.2,404.8,350.3z M172.2,309.2c-0.6-1.4-1.3-2.9-1.9-4.3l26.8-11
			c0.5,1.2,1,2.3,1.5,3.5L172.2,309.2z M431.6,311.7l-26.2-12.4c0.5-1.1,1-2.3,1.5-3.4l26.6,11.5
			C432.9,308.8,432.3,310.3,431.6,311.7z M160.3,263.7c-0.1-1.6-0.3-3.1-0.3-4.7l29-1.6c0.1,1.3,0.2,2.5,0.3,3.7L160.3,263.7z
			 M444.3,266.5l-28.8-3.1l0.1-1.1c0.1-0.9,0.2-1.8,0.2-2.7l0-0.4l28.9,2.1l0,0.5c-0.1,1.1-0.2,2.2-0.3,3.3L444.3,266.5z M192,223.8
			l-28.2-6.9c0.4-1.5,0.8-3.1,1.2-4.6l27.9,7.8C192.7,221.4,192.3,222.6,192,223.8z M413.4,225.6c-0.3-1.2-0.6-2.4-0.9-3.6l28.1-7.4
			c0.4,1.5,0.8,3,1.1,4.6L413.4,225.6z M264.7,143.6l-9.7-27.4c1.5-0.5,3-1,4.4-1.5l8.8,27.7C267,142.8,265.8,143.2,264.7,143.6z
			 M342,144.2c-1.2-0.4-2.4-0.8-3.5-1.2l9.2-27.5c1.5,0.5,3,1,4.5,1.6L342,144.2z M301.5,137.2l-0.2-29c1.6,0,3.1,0,4.7,0l-0.7,29
			C304,137.2,302.7,137.2,301.5,137.2z"/>
	</g>
	<g>
		<path class="st2" d="M388.2,256c0-49.4-41.8-89-91.9-85.6c-42.7,3-77.1,37.8-79.5,80.5c-1.9,32.6,14.5,61.5,39.9,77.6
			c7.2,4.5,11.4,12.6,11.4,21.1v21.1h68.8v-21.4c0-8.6,4.5-16.4,11.7-21C372.3,313.1,388.2,286.4,388.2,256z"/>
		<path class="st2" d="M322.5,271.9c-0.4,5.5,3.8,10.3,9.4,10.7c6.9,0.4,12.9-4.8,13.3-11.7c0.6-8.7-6-16.1-14.7-16.7
			c-10.8-0.7-20.2,7.5-20.9,18.3v96.1"/>
		<path class="st2" d="M281.3,271.9c0.4,5.5-3.8,10.3-9.4,10.7c-6.9,0.4-12.9-4.8-13.3-11.7c-0.6-8.7,6-16.1,14.7-16.7
			c10.8-0.7,20.2,7.5,20.9,18.3v96.1"/>
		<line class="st3" x1="267.9" y1="385.9" x2="337.8" y2="385.9"/>
		<line class="st3" x1="267.9" y1="402.2" x2="337.8" y2="402.2"/>
		<line class="st4" x1="267.9" y1="418.5" x2="337.8" y2="418.5"/>
		<path class="st2" d="M315,418.5c0,6.7-5.4,12.1-12.1,12.1c-6.7,0-12.1-5.4-12.1-12.1"/>
	</g>
</g>
<g>
	<g id="XMLID_3_">
		<path id="XMLID_5_" d="M380.1,41.1c0.6-3.6-3.1-6.6-7.7-6.2l-87,7.1l-87,7.1c-4.5,0.4-7.7,3.9-6.6,7.4
			c7.9,24,33.9,107.6,31.6,163.1c-0.1,3.4,3.4,6.1,7.7,5.7l68.8-5.6l68.8-5.6c4.3-0.3,7.4-3.5,6.7-6.9
			C364.1,152.8,376.2,66.1,380.1,41.1z"/>
		<path id="XMLID_4_" class="st5" d="M222,185.2c1.1,12,1.6,22.8,1.3,33.2c-0.1,3.9,3.5,6.8,7.8,6.4l68.8-5.6l68.8-5.6
			c4.3-0.3,7.3-3.8,6.6-7.6c-2-10.2-3.3-21.1-4.1-33.1c-21.7,4.2-46.3,7.9-73.5,10.1C269.9,185.3,244.5,185.8,222,185.2z"/>
	</g>
	<path id="XMLID_2_" d="M301.1,214l-1.6,0.1l-1.6,0.1c-54.9,0.8-108.1-0.4-130.3-19c-2.8-2.3-6.1,0.6-5.7,5v0
		c1.1,13.7,37.7,22.5,55.3,25.6c25.7,4.5,55,4.5,83.4,2c14.6-1.3,29-3.2,42.5-5.7c19.2-3.4,38.3-8.3,55-15.5
		c13.1-5.6,35.8-17.5,34.9-28.5l0,0c-0.4-4.4-4.1-6.8-6.5-4C407.6,196.1,355.4,206,301.1,214z"/>
</g>
<g>
	<path id="XMLID_1_" class="st6" d="M204.5,384.8c9.4-0.2,13.3,13.2,6.6,16.6c-1.6,0.8-3.9,1.9-6.9,1.2c-8.5-2-3.9-9.4-3-10.8
		c-4.2-0.6-10.1,15,6.6,15.9c3.5,0.2,7.2-0.8,10.2-5.2c11.7-16.8-17.6-36.6-33-14.5c-7,10.1-1.4,23.6,5.2,29.3
		c24.8,21.5,88.4,18.8,112.3-4.5c24.3,22.9,87.9,24.5,112.3,2.6c6.5-5.8,11.9-19.4,4.7-29.4c-15.8-21.8-44.7-1.6-32.8,15.1
		c3.1,4.3,6.8,5.3,10.3,5c16.6-1.2,10.5-16.7,6.3-16.1c0.8,1.4,5.6,8.6-2.9,10.8c-3,0.8-5.3-0.2-6.9-1c-6.8-3.3-3.1-16.7,6.3-16.7
		c14.6,0,22.4,19.8,3.3,25.2c-28.2,8-41.5-27-69.3-32.4c-23.8-4.6-29.4,5-31.6,7.1c-2.3-2-8-11.5-31.7-6.5
		c-27.8,5.9-40.5,41.1-68.8,33.6C182.5,405,190,385.1,204.5,384.8z"/>
</g>
<g>
	<g>
		<defs>
			
				<rect id="SVGID_1_" x="310.8" y="240.3" transform="matrix(0.9088 -0.4172 0.4172 0.9088 -83.3611 169.4602)" width="70.4" height="70.4"/>
		</defs>
		<clipPath id="SVGID_2_">
			<use xlink:href="#SVGID_1_"  style="overflow:visible;"/>
		</clipPath>
		<path class="st7" d="M358.3,260.1c-6.1-13.2-21.7-19-35-13c-13.2,6.1-19,21.7-13,35c6.1,13.2,21.7,19,35,13
			C358.6,289,364.4,273.3,358.3,260.1L358.3,260.1z M342.6,289.1c-9.9,4.6-21.7,0.2-26.2-9.7c-4.5-9.9-0.2-21.7,9.7-26.2
			c9.9-4.5,21.7-0.2,26.2,9.7C356.8,272.8,352.5,284.5,342.6,289.1L342.6,289.1z M342.6,289.1"/>
		<path class="st7" d="M386.1,283.3l-21.4-7.9c-0.6,4.4-2.2,8.6-4.6,12.4l21.4,7.9c3.4,1.3,7.2-0.5,8.5-3.9
			C391.3,288.3,389.6,284.6,386.1,283.3L386.1,283.3z M386.1,283.3"/>
	</g>
</g>
<image style="display:none;overflow:visible;opacity:0.42;" width="8192" height="4096" xlink:href="../../Documents/10-deg_blank_grid.png"  transform="matrix(0.1453 0 0 0.1453 3 3)">
</image>
</svg>
