<?xml version="1.0" encoding="UTF-8"?>
<svg viewBox="0 0 500 500" xmlns="http://www.w3.org/2000/svg" xmlns:xlink="http://www.w3.org/1999/xlink">
 <defs>
  <filter id="m" x="-.1113" y="-.126" width="1.2226" height="1.252">
   <feGaussianBlur stdDeviation="1.01"/>
  </filter>
  <linearGradient id="b">
   <stop stop-color="#996200" offset="0"/>
   <stop stop-color="#593900" offset="1"/>
  </linearGradient>
  <linearGradient id="a">
   <stop stop-color="#fff" offset="0"/>
   <stop stop-color="#fff" stop-opacity="0" offset="1"/>
  </linearGradient>
  <linearGradient id="g" x1="1228.6" x2="1244.3" y1="464.78" y2="490.31" gradientUnits="userSpaceOnUse">
   <stop stop-color="#fff" offset="0"/>
   <stop stop-color="#f8c367" offset="1"/>
  </linearGradient>
  <linearGradient id="l" x1="1224.8" x2="1237.1" y1="464.35" y2="478.65" gradientUnits="userSpaceOnUse" xlink:href="#b"/>
  <linearGradient id="k" x1="1222.9" x2="1233.7" y1="467.98" y2="473.52" gradientUnits="userSpaceOnUse" xlink:href="#a"/>
  <linearGradient id="j" x1="1462.4" x2="1437.1" y1="599.48" y2="566.62" gradientUnits="userSpaceOnUse" xlink:href="#b"/>
  <linearGradient id="i" x1="1251.7" x2="1226.3" y1="479.09" y2="446.23" gradientUnits="userSpaceOnUse" xlink:href="#b"/>
  <linearGradient id="h" x1="1128" x2="1142.8" y1="698.3" y2="719.45" gradientTransform="matrix(.87331 0 0 1 243.89 -242.31)" gradientUnits="userSpaceOnUse" xlink:href="#a"/>
  <linearGradient id="f" x1="1470.8" x2="1484.6" y1="597.62" y2="621.39" gradientTransform="matrix(1.141 0 0 .8206 -449.58 -22.834)" gradientUnits="userSpaceOnUse" xlink:href="#a"/>
  <linearGradient id="e" x1="1056" x2="1065.7" y1="490.22" y2="510.61" gradientTransform="matrix(-.97276 0 0 1 2265.2 -6.3748)" gradientUnits="userSpaceOnUse" xlink:href="#a"/>
  <linearGradient id="d" x1="1241.3" x2="1250.9" y1="484.24" y2="504.63" gradientUnits="userSpaceOnUse" xlink:href="#a"/>
  <radialGradient id="c" cx="975.19" cy="469.46" r="8.9147" gradientTransform="matrix(1.335 .10019 -.10581 1.1912 -9.1405 -176.66)" gradientUnits="userSpaceOnUse">
   <stop stop-color="#fff" offset="0"/>
   <stop stop-color="#fbdea9" offset="1"/>
  </radialGradient>
 </defs>
 <g transform="matrix(9.2352 0 0 9.2352 -11200 -4241.7)" fill-rule="evenodd">
  <path d="m1232.6 487.98 14.03-0.3216-4.209 21.369-6.8395-0.1608-2.9814-20.886z" fill="#fbdea9"/>
  <path d="m1230.7 487.85 7.7159 5.1439h2.0003l7.4302-4.2866 0.2857-12.574s-0.6925-8.4956-9.7162-8.5732c-7.0244-0.0624-8.0017 10.859-8.0017 10.859l0.2858 9.4305z" fill="url(#c)" stroke="#996508" stroke-linecap="round" stroke-linejoin="round"/>
  <path d="m1230.3 481.12s-3.8578-6.3584-2.8577-10.288 3.0721-6.2155 6.8585-5.4297c2.8894 0.5997 4.8581 4.0008 4.8581 4.0008l-4.8581 0.2858-4.0008 11.431z" fill="url(#l)"/>
  <path d="m1230.8 481.45s-3.8579-6.3584-2.8578-10.288 3.072-6.2156 6.8586-5.4297c2.8893 0.5997 4.858 4.0008 4.858 4.0008l-4.858 0.2858-4.0008 11.431z" fill="url(#k)"/>
  <path transform="matrix(.88342 0 0 .88454 -41.816 -51.29)" d="m1440.6254,587.357c0,0 .4183-.0954.8289.5129 5.0149,7.4281 16.0421,7.1915 18.4372,12.3777 .4132.8947.971.6608.971.6608s2.7863-5.1439.8573-10.002-3.7718-6.569-8.0017-8.2874c-4.5724-1.8575-5.7869-.5001-9.1447.5716s-3.948,4.1665-3.948,4.1665z" fill="url(#j)" filter="url(#m)"/>
  <path d="m1229.8961,466.966c0,0 .4183-.0953.8289.5129 5.0148,7.4281 16.042,7.1915 18.4371,12.3777 .4132.8947.971.6608.971.6608s2.7864-5.1439.8574-10.002-3.7719-6.569-8.0018-8.2874c-4.5724-1.8575-5.7869-.5001-9.1447.5716s-3.9479,4.1665-3.9479,4.1665z" fill="url(#i)"/>
  <path d="m1231 467.29s0.3653-0.0954 0.7239 0.5129c10.185 7.6649 27.844 3.0488 10.71-5.251-5.1654-1.751-3.6683-0.5001-7.9862 0.5716-3.0302 0.7521-3.4478 4.1666-3.4478 4.1666z" fill="url(#h)"/>
  <path d="m1234.2 473.18c3.8015 2.4988 7.6031 4.1457 11.948 4.9408v9.0297c-4.7669 2.8963-8.6289 2.726-13.215 0.5111l-0.9051-8.689 2.1724-5.7927z" fill="url(#g)" opacity=".549"/>
  <path d="m1234.3 473.99c3.8015 1.9095 7.603 3.168 11.948 3.7755v6.9001c-4.767 2.2132-8.6288 2.0831-13.215 0.3906l-0.9053-6.6397 2.1726-4.4265z" fill="url(#f)"/>
  <path d="m1245.7 492.67-12.994 17.964 26.98 0.4878s-0.464-10.982-3.1326-14.509c-3.7448-3.1957-10.853-3.943-10.853-3.943z" stroke="#000" stroke-linecap="round" stroke-linejoin="round"/>
  <path d="m1233.9 493.3 9.2116 17.249-23.197 0.0443s0.8779-11.396 3.5465-14.923c3.7446-3.1957 10.439-2.3701 10.439-2.3701z" stroke="#000" stroke-linecap="round" stroke-linejoin="round"/>
  <path d="m1233.6 493.07 5.155 12.424-18.882-0.5854s0.4515-4.9821 3.0474-8.5089c3.6426-3.1957 10.68-3.3292 10.68-3.3292z" fill="url(#e)"/>
  <path d="m1245.9 492.84-7.3358 11.964 21.321 0.4878s-0.464-4.9821-3.1326-8.5089c-3.7448-3.1957-10.853-3.943-10.853-3.943z" fill="url(#d)"/>
 </g>
</svg>
