<svg id="Layer_1" data-name="Layer 1" xmlns="http://www.w3.org/2000/svg" viewBox="0 0 30 30"><defs><style>.cls-1{fill:#fff;}</style></defs><title>30</title><ellipse class="cls-1" cx="14.96" cy="14.77" rx="14.71" ry="14.65"/><path d="M14.66,10.61a4.88,4.88,0,1,0,4.9,4.88A4.89,4.89,0,0,0,14.66,10.61Zm0,9.19A4.31,4.31,0,1,1,19,15.49,4.32,4.32,0,0,1,14.66,19.8Z"/><path d="M23.18,8.78a.29.29,0,0,0-.29,0c-.09.06-2.12,1.4-2.12,5.9a.29.29,0,0,0,.29.29h1.7v5.41a.29.29,0,0,0,.58,0V9A.28.28,0,0,0,23.18,8.78Zm-1.84,5.62a8.47,8.47,0,0,1,.93-4,4.63,4.63,0,0,1,.48-.7v4.71Z"/><path d="M8.88,8.75A.29.29,0,0,0,8.59,9v3.59a.1.1,0,0,1-.1.1H7.79V9a.29.29,0,0,0-.57,0v3.68H6.51a.1.1,0,0,1-.1-.1V9a.29.29,0,0,0-.57,0v3.59a.67.67,0,0,0,.67.67h.71v7.1a.29.29,0,0,0,.57,0v-7.1H8.5a.67.67,0,0,0,.67-.67V9A.29.29,0,0,0,8.88,8.75Z"/></svg>