<?xml version="1.0" encoding="utf-8"?>
<!-- Generator: Adobe Illustrator 16.0.0, SVG Export Plug-In . SVG Version: 6.00 Build 0)  -->
<!DOCTYPE svg PUBLIC "-//W3C//DTD SVG 1.1//EN" "http://www.w3.org/Graphics/SVG/1.1/DTD/svg11.dtd">
<svg version="1.1" id="Layer_1" xmlns="http://www.w3.org/2000/svg" xmlns:xlink="http://www.w3.org/1999/xlink" x="0px" y="0px"
	 width="32px" height="32px" viewBox="0 0 32 32" enable-background="new 0 0 32 32" xml:space="preserve">
<g>
	<path fill="#FFFFFF" d="M31.111,16.17c-0.133-0.991-0.732-1.883-1.646-2.445c-0.652-0.402-1.396-0.589-2.098-0.545
		c-0.002-0.298-0.244-0.539-0.543-0.539H1.381c-0.3,0-0.543,0.243-0.543,0.543c0,2.51,0.705,4.954,2.038,7.067
		c0.999,1.582,2.317,2.93,3.861,3.963c-1.412,0.189-2.625,0.434-3.559,0.719c-1.004,0.307-2.339,0.828-2.339,1.822
		c0,0.848,0.992,1.299,1.318,1.447c0.68,0.309,1.639,0.584,2.849,0.814c2.435,0.469,5.666,0.727,9.097,0.727
		c3.431,0,6.663-0.258,9.097-0.727c1.211-0.23,2.17-0.506,2.85-0.814c0.326-0.148,1.318-0.6,1.318-1.447
		c0-0.994-1.336-1.516-2.34-1.822c-0.936-0.285-2.146-0.529-3.559-0.719c0.535-0.357,1.043-0.754,1.52-1.184
		c0.451-0.154,0.912-0.307,1.359-0.453c1.832-0.602,3.562-1.17,4.846-2.082C30.725,19.408,31.354,17.992,31.111,16.17z
		 M24.521,25.916c1.43,0.41,1.709,0.768,1.754,0.84c-0.059,0.096-0.541,0.699-3.535,1.244c-2.338,0.424-5.406,0.658-8.638,0.658
		c-3.231,0-6.298-0.234-8.638-0.658c-2.995-0.545-3.476-1.148-3.535-1.244c0.043-0.072,0.323-0.43,1.753-0.84
		c1.167-0.334,2.768-0.607,4.638-0.791c1.81,0.877,3.753,1.324,5.781,1.324c2.027,0,3.972-0.447,5.78-1.324
		C21.752,25.309,23.354,25.582,24.521,25.916z M22.396,22.107l-0.115,0.107c-0.811,0.73-1.727,1.361-2.738,1.867
		c-1.699,0.85-3.53,1.279-5.44,1.279s-3.741-0.43-5.44-1.279C4.669,22.084,2.13,18.15,1.937,13.728h24.327l-0.016,0.326
		C26.029,17.176,24.641,20.033,22.396,22.107z M24.539,21.371c0.281-0.359,0.545-0.732,0.789-1.119
		c1.141-1.807,1.82-3.854,1.994-5.979c0.51-0.061,1.074,0.069,1.574,0.377c0.635,0.39,1.049,0.997,1.137,1.664
		C30.428,19.271,27.764,20.305,24.539,21.371z"/>
	<path fill="#FFFFFF" d="M11.782,9.455c-0.168,0.248-0.103,0.586,0.146,0.754c0.093,0.063,0.199,0.093,0.303,0.093
		c0.175,0,0.347-0.084,0.451-0.239c0.411-0.609,0.93-2.045-0.047-3.124c-0.633-0.698,0.005-1.611,0.037-1.656
		c0.176-0.241,0.124-0.58-0.118-0.757c-0.242-0.178-0.583-0.125-0.759,0.117c-0.419,0.57-0.952,1.938,0.035,3.026
		C12.477,8.383,11.809,9.413,11.782,9.455z"/>
	<path fill="#FFFFFF" d="M15.522,7.291c-0.167,0.249-0.102,0.586,0.146,0.754c0.093,0.063,0.199,0.093,0.304,0.093
		c0.174,0,0.345-0.083,0.451-0.24c0.411-0.609,0.93-2.045-0.047-3.124c-0.634-0.698,0.004-1.612,0.035-1.656
		c0.177-0.242,0.125-0.581-0.117-0.757c-0.242-0.178-0.582-0.125-0.759,0.116c-0.419,0.571-0.952,1.938,0.036,3.027
		C16.217,6.219,15.55,7.249,15.522,7.291z"/>
</g>
</svg>
