<?xml version="1.0" encoding="utf-8"?>
<!-- Generator: Adobe Illustrator 16.0.0, SVG Export Plug-In . SVG Version: 6.00 Build 0)  -->
<!DOCTYPE svg PUBLIC "-//W3C//DTD SVG 1.1//EN" "http://www.w3.org/Graphics/SVG/1.1/DTD/svg11.dtd">
<svg version="1.1" id="Layer_1" xmlns="http://www.w3.org/2000/svg" xmlns:xlink="http://www.w3.org/1999/xlink" x="0px" y="0px"
	 width="32px" height="32px" viewBox="0 0 32 32" enable-background="new 0 0 32 32" xml:space="preserve">
<g>
	<path d="M31.111,16.17c-0.133-0.991-0.732-1.883-1.646-2.445c-0.652-0.402-1.396-0.589-2.098-0.545
		c-0.002-0.298-0.244-0.539-0.543-0.539H1.381c-0.3,0-0.543,0.243-0.543,0.543c0,2.51,0.705,4.955,2.038,7.067
		c0.999,1.582,2.317,2.931,3.861,3.963c-1.412,0.188-2.625,0.435-3.559,0.72c-1.004,0.308-2.339,0.827-2.339,1.821
		c0,0.849,0.992,1.3,1.318,1.447c0.68,0.309,1.639,0.584,2.849,0.813c2.435,0.469,5.666,0.728,9.097,0.728s6.663-0.259,9.097-0.728
		c1.211-0.229,2.17-0.507,2.85-0.813c0.326-0.147,1.318-0.601,1.318-1.447c0-0.994-1.336-1.516-2.341-1.821
		c-0.937-0.285-2.146-0.529-3.56-0.72c0.535-0.356,1.044-0.754,1.521-1.185c0.451-0.153,0.912-0.307,1.359-0.452
		c1.832-0.603,3.562-1.17,4.846-2.082C30.725,19.408,31.354,17.992,31.111,16.17z M24.521,25.916c1.43,0.41,1.709,0.768,1.754,0.84
		c-0.061,0.096-0.541,0.699-3.535,1.244c-2.338,0.424-5.406,0.658-8.638,0.658c-3.231,0-6.298-0.234-8.638-0.658
		c-2.995-0.545-3.476-1.148-3.535-1.244c0.043-0.072,0.323-0.43,1.753-0.84c1.167-0.334,2.768-0.607,4.638-0.791
		c1.81,0.877,3.753,1.324,5.781,1.324c2.027,0,3.972-0.447,5.78-1.324C21.752,25.309,23.354,25.582,24.521,25.916z M22.396,22.107
		l-0.115,0.105c-0.811,0.729-1.727,1.361-2.738,1.867c-1.699,0.852-3.53,1.277-5.44,1.277s-3.741-0.43-5.44-1.277
		c-3.994-1.996-6.533-5.93-6.726-10.352h24.327l-0.016,0.326C26.029,17.176,24.641,20.033,22.396,22.107z M24.539,21.371
		c0.281-0.359,0.545-0.732,0.789-1.119c1.141-1.807,1.82-3.854,1.994-5.979c0.51-0.061,1.074,0.069,1.574,0.377
		c0.635,0.39,1.049,0.997,1.137,1.664C30.428,19.271,27.764,20.305,24.539,21.371z"/>
	<path d="M11.782,9.455c-0.168,0.248-0.103,0.586,0.146,0.754c0.093,0.063,0.199,0.093,0.303,0.093c0.175,0,0.347-0.084,0.451-0.239
		c0.411-0.609,0.93-2.045-0.047-3.124c-0.633-0.698,0.005-1.611,0.037-1.656c0.176-0.241,0.124-0.58-0.118-0.757
		c-0.242-0.178-0.583-0.125-0.759,0.117c-0.419,0.57-0.952,1.938,0.035,3.026C12.477,8.383,11.809,9.413,11.782,9.455z"/>
	<path d="M15.522,7.291c-0.167,0.249-0.102,0.586,0.146,0.754c0.093,0.063,0.199,0.093,0.304,0.093c0.174,0,0.345-0.083,0.451-0.24
		c0.411-0.609,0.931-2.045-0.047-3.124c-0.634-0.698,0.004-1.612,0.035-1.656c0.177-0.242,0.125-0.581-0.117-0.757
		c-0.242-0.178-0.582-0.125-0.759,0.116c-0.419,0.571-0.952,1.938,0.036,3.027C16.217,6.219,15.55,7.249,15.522,7.291z"/>
</g>
</svg>
