<?xml version="1.0" encoding="utf-8"?>
<!-- Generator: Adobe Illustrator 16.0.0, SVG Export Plug-In . SVG Version: 6.00 Build 0)  -->
<!DOCTYPE svg PUBLIC "-//W3C//DTD SVG 1.1//EN" "http://www.w3.org/Graphics/SVG/1.1/DTD/svg11.dtd">
<svg version="1.1" id="Layer_1" xmlns="http://www.w3.org/2000/svg" xmlns:xlink="http://www.w3.org/1999/xlink" x="0px" y="0px"
	 width="32px" height="32px" viewBox="0 0 32 32" enable-background="new 0 0 32 32" xml:space="preserve">
<g>
	<g>
		<path fill="#FFFFFF" d="M31.036,5.148c-0.8-1.382-2.1-2.372-3.658-2.783c-1.599-0.421-3.326-0.178-4.734,0.671
			c-1.332,0.799-2.259,2.051-2.6,3.516c-0.052,0.215-0.078,0.708-0.084,1.091h-7.708L8.316,0.681
			c-0.123-0.218-0.392-0.31-0.621-0.212L0.482,3.474C0.23,3.578,0.11,3.869,0.216,4.121c0.104,0.25,0.393,0.37,0.646,0.266
			l6.807-2.837l3.445,6.094H6.583c-0.19,0-0.363,0.109-0.446,0.281C6.054,8.095,6.078,8.298,6.197,8.448l9.509,11.885v10.254h-2.473
			c-0.271,0-0.492,0.221-0.492,0.494c0,0.27,0.221,0.489,0.492,0.489h5.933c0.272,0,0.492-0.22,0.492-0.489
			c0-0.273-0.22-0.494-0.492-0.494h-2.473V20.333l6.04-7.543l0.068,0.053c0.546,0.405,1.061,0.79,1.455,0.918
			c0.549,0.179,1.118,0.265,1.683,0.265c0.926,0,1.853-0.234,2.709-0.697c1.454-0.79,2.534-2.149,2.968-3.732
			C32.025,8.085,31.821,6.506,31.036,5.148L31.036,5.148z M23.02,10.649h-7.815c-0.272,0-0.492,0.22-0.492,0.492
			c0,0.276,0.22,0.495,0.492,0.495h7.18l-6.183,7.732l-6.185-7.732h1.474c0.276,0,0.495-0.219,0.495-0.495
			c0-0.272-0.219-0.492-0.495-0.492H9.23H9.227L7.611,8.631h4.064l3.595,6.362c0.091,0.162,0.257,0.25,0.429,0.25
			c0.085,0,0.167-0.019,0.244-0.062c0.236-0.135,0.32-0.436,0.186-0.674L12.81,8.631h11.979l-1.634,2.046
			C23.112,10.664,23.068,10.649,23.02,10.649L23.02,10.649z M30.666,9.335c-0.361,1.326-1.268,2.466-2.485,3.125
			c-1.146,0.621-2.431,0.746-3.62,0.363c-0.24-0.078-0.753-0.462-1.168-0.771l-0.045-0.034l2.857-3.57
			c0.117-0.15,0.142-0.353,0.06-0.524c-0.082-0.172-0.256-0.281-0.447-0.281h-4.874c0.008-0.311,0.025-0.731,0.056-0.863
			c0.285-1.208,1.048-2.238,2.15-2.901c1.184-0.711,2.635-0.916,3.977-0.562c1.308,0.342,2.391,1.169,3.058,2.323
			C30.837,6.769,31.008,8.083,30.666,9.335L30.666,9.335z M30.666,9.335"/>
	</g>
</g>
</svg>
