<?xml version="1.0" encoding="utf-8"?>
<!-- Generator: Adobe Illustrator 16.0.0, SVG Export Plug-In . SVG Version: 6.00 Build 0)  -->
<!DOCTYPE svg PUBLIC "-//W3C//DTD SVG 1.1//EN" "http://www.w3.org/Graphics/SVG/1.1/DTD/svg11.dtd">
<svg version="1.1" id="Layer_1" xmlns="http://www.w3.org/2000/svg" xmlns:xlink="http://www.w3.org/1999/xlink" x="0px" y="0px"
	 width="60px" height="60px" viewBox="0 0 60 60" enable-background="new 0 0 60 60" xml:space="preserve">
<g>
	<g>
		<g>
			<path stroke="#000000" stroke-width="0.25" stroke-miterlimit="10" d="M56.221,18.052h-1.072V15.97
				c0-1.08-0.877-1.957-1.957-1.957h-6.058c-1.079,0-1.956,0.877-1.956,1.957v2.082h-4.679l-0.506-3.228
				c-0.001-0.002-0.001-0.004-0.002-0.007v-0.004c-0.003-0.009-0.005-0.017-0.005-0.025c-0.008-0.04-0.019-0.08-0.03-0.119
				c-0.003-0.008-0.005-0.015-0.007-0.023c-0.004-0.011-0.01-0.021-0.014-0.033c-0.008-0.017-0.014-0.034-0.021-0.05
				c-0.005-0.01-0.012-0.02-0.016-0.029c-0.01-0.018-0.018-0.035-0.026-0.051c-0.006-0.009-0.013-0.018-0.019-0.027
				c-0.011-0.017-0.021-0.034-0.033-0.051c-0.004-0.003-0.006-0.008-0.008-0.012l-3.03-4.04c-0.179-0.238-0.458-0.378-0.757-0.378
				H23.911c-0.299,0-0.579,0.141-0.758,0.378l-3.029,4.04c-0.003,0.004-0.005,0.008-0.009,0.012
				c-0.011,0.017-0.022,0.034-0.034,0.051c-0.006,0.009-0.012,0.018-0.017,0.027c-0.01,0.017-0.019,0.034-0.027,0.051
				c-0.005,0.01-0.01,0.02-0.015,0.029c-0.008,0.017-0.014,0.033-0.021,0.051c-0.004,0.011-0.009,0.021-0.013,0.033
				c-0.002,0.007-0.004,0.015-0.007,0.022c-0.012,0.039-0.022,0.079-0.03,0.119c-0.002,0.008-0.004,0.017-0.005,0.025v0.004
				c0,0.002-0.001,0.005-0.001,0.007l-0.506,3.228H17.79V15.97c0-1.08-0.877-1.957-1.956-1.957h-4.039
				c-1.079,0-1.957,0.877-1.957,1.957v2.082H8.701v-1.073c0-1.079-0.878-1.956-1.956-1.956h-2.02c-1.079,0-1.956,0.877-1.956,1.956
				v1.229c-1.173,0.396-2.02,1.506-2.02,2.811v28.272c0,1.635,1.331,2.965,2.966,2.965h52.504c1.637,0,2.967-1.33,2.967-2.965
				V21.019C59.188,19.383,57.855,18.052,56.221,18.052L56.221,18.052z M2.643,30.042h7.35c0.396,1.172,1.506,2.021,2.811,2.021
				c1.305,0,2.415-0.849,2.811-2.021h1.942l-0.209,1.336c-0.195,1.244-0.294,2.515-0.294,3.774c0,1.261,0.099,2.531,0.294,3.775
				l1.161,7.396H2.643V30.042z M11.731,29.096c0-0.592,0.481-1.073,1.072-1.073c0.591,0,1.073,0.481,1.073,1.073
				c0,0.592-0.481,1.073-1.073,1.073C12.211,30.169,11.731,29.688,11.731,29.096L11.731,29.096z M21.69,15.907h16.556l1.775,11.317
				c-2.349-2.971-5.981-4.881-10.054-4.881c-4.072,0-7.705,1.91-10.053,4.881L21.69,15.907z M19.051,35.154
				c0-6.021,4.897-10.917,10.917-10.917c6.021,0,10.917,4.897,10.917,10.917c0,6.02-4.896,10.918-10.917,10.918
				C23.948,46.072,19.051,41.174,19.051,35.154L19.051,35.154z M42.59,38.93c0.195-1.244,0.295-2.516,0.295-3.775
				c0-1.258-0.1-2.53-0.295-3.774l-0.209-1.336h14.913v16.282H41.43L42.59,38.93z M47.07,15.97c0-0.036,0.027-0.063,0.062-0.063
				h6.059c0.035,0,0.062,0.028,0.062,0.063v2.082H47.07V15.97z M56.221,19.946c0.592,0,1.073,0.481,1.073,1.073v7.131h-15.21
				l-1.288-8.204H56.221z M24.383,11.868h11.17l1.609,2.145H22.774L24.383,11.868z M11.731,15.97c0-0.036,0.028-0.063,0.063-0.063
				h4.039c0.034,0,0.062,0.028,0.062,0.063v2.082H11.73L11.731,15.97L11.731,15.97z M4.726,16.917h2.02
				c0.035,0,0.063,0.028,0.063,0.063v1.073H4.663V16.98C4.663,16.945,4.691,16.917,4.726,16.917L4.726,16.917z M3.716,19.946H19.14
				l-1.287,8.204h-2.239c-0.396-1.173-1.506-2.02-2.811-2.02c-1.304,0-2.414,0.847-2.811,2.02h-7.35v-7.131
				C2.643,20.427,3.125,19.946,3.716,19.946L3.716,19.946z M2.643,49.291v-1.074h16.161l0.106,0.68
				c0.084,0.535,0.271,1.031,0.537,1.468H3.716C3.125,50.363,2.643,49.883,2.643,49.291L2.643,49.291z M23.911,50.363h-1.073
				c-1.032,0-1.897-0.74-2.057-1.76l-0.866-5.521c2.348,2.972,5.981,4.881,10.053,4.881c4.072,0,7.706-1.909,10.054-4.881
				l-0.865,5.521c-0.16,1.02-1.025,1.76-2.059,1.76H23.911z M56.221,50.363H40.49c0.266-0.437,0.451-0.932,0.535-1.467l0.106-0.681
				h16.161v1.074C57.294,49.883,56.812,50.363,56.221,50.363L56.221,50.363z"/>
		</g>
	</g>
	<path stroke="#000000" stroke-width="0.25" stroke-miterlimit="10" d="M29.968,44.18c4.976,0,9.024-4.049,9.024-9.025
		c0-4.975-4.049-9.023-9.024-9.023s-9.024,4.048-9.024,9.023C20.944,40.131,24.993,44.18,29.968,44.18L29.968,44.18z M29.968,28.023
		c3.933,0,7.132,3.2,7.132,7.131c0,3.931-3.199,7.131-7.132,7.131c-3.932,0-7.131-3.199-7.131-7.131S26.037,28.023,29.968,28.023
		L29.968,28.023z"/>
	<path stroke="#000000" stroke-width="0.25" stroke-miterlimit="10" d="M29.968,39.131c2.192,0,3.976-1.783,3.976-3.977
		c0-2.194-1.783-3.978-3.976-3.978c-2.192,0-3.976,1.783-3.976,3.978C25.992,37.348,27.776,39.131,29.968,39.131L29.968,39.131z
		 M29.968,33.072c1.149,0,2.083,0.934,2.083,2.082c0,1.147-0.934,2.082-2.083,2.082c-1.148,0-2.083-0.935-2.083-2.082
		C27.885,34.006,28.82,33.072,29.968,33.072L29.968,33.072z"/>
</g>
</svg>
