<?xml version="1.0" encoding="utf-8"?>
<!-- Generator: Adobe Illustrator 16.0.0, SVG Export Plug-In . SVG Version: 6.00 Build 0)  -->
<!DOCTYPE svg PUBLIC "-//W3C//DTD SVG 1.1//EN" "http://www.w3.org/Graphics/SVG/1.1/DTD/svg11.dtd">
<svg version="1.1" id="Layer_1" xmlns="http://www.w3.org/2000/svg" xmlns:xlink="http://www.w3.org/1999/xlink" x="0px" y="0px"
	 width="60px" height="60px" viewBox="0 0 60 60" enable-background="new 0 0 60 60" xml:space="preserve">
<g display="none">
	<g display="inline">
		<defs>
			<rect id="SVGID_1_" x="0.75" y="10" width="58.5" height="42.409"/>
		</defs>
		<clipPath id="SVGID_2_">
			<use xlink:href="#SVGID_1_"  overflow="visible"/>
		</clipPath>
		<path clip-path="url(#SVGID_2_)" d="M56.221,18.052h-1.072V15.97c0-1.08-0.878-1.957-1.957-1.957h-6.058
			c-1.079,0-1.956,0.877-1.956,1.957v2.082h-4.679l-0.506-3.228c-0.001-0.002-0.001-0.004-0.002-0.007v-0.004
			c-0.002-0.009-0.004-0.017-0.005-0.025c-0.008-0.04-0.018-0.08-0.03-0.119c-0.003-0.008-0.005-0.015-0.007-0.023
			c-0.004-0.011-0.01-0.021-0.014-0.033c-0.007-0.017-0.013-0.034-0.021-0.05c-0.005-0.01-0.011-0.02-0.015-0.029
			c-0.01-0.018-0.018-0.035-0.027-0.051c-0.006-0.009-0.012-0.018-0.018-0.027c-0.011-0.017-0.021-0.034-0.034-0.051
			c-0.003-0.003-0.005-0.008-0.008-0.012l-3.03-4.04c-0.178-0.238-0.458-0.378-0.756-0.378H23.911c-0.299,0-0.579,0.141-0.758,0.378
			l-3.029,4.04c-0.003,0.004-0.005,0.008-0.009,0.012c-0.011,0.017-0.022,0.034-0.034,0.051c-0.006,0.009-0.012,0.018-0.017,0.027
			c-0.01,0.017-0.019,0.034-0.027,0.051c-0.005,0.01-0.01,0.02-0.015,0.029c-0.008,0.017-0.014,0.033-0.021,0.051
			c-0.004,0.011-0.009,0.021-0.013,0.033c-0.002,0.007-0.004,0.015-0.007,0.022c-0.012,0.039-0.022,0.079-0.03,0.119
			c-0.002,0.008-0.004,0.017-0.005,0.025l0,0.004c0,0.002-0.001,0.005-0.001,0.007l-0.506,3.228h-1.649V15.97
			c0-1.08-0.877-1.957-1.956-1.957h-4.039c-1.079,0-1.957,0.877-1.957,1.957v2.082H8.701v-1.073c0-1.079-0.878-1.956-1.956-1.956
			h-2.02c-1.079,0-1.956,0.877-1.956,1.956v1.229c-1.173,0.396-2.02,1.506-2.02,2.811v28.272c0,1.635,1.331,2.965,2.966,2.965
			h52.504c1.636,0,2.966-1.33,2.966-2.965V21.019C59.187,19.383,57.856,18.052,56.221,18.052L56.221,18.052z M2.643,30.042h7.35
			c0.396,1.172,1.506,2.02,2.811,2.02c1.305,0,2.415-0.848,2.811-2.02h1.942l-0.209,1.336c-0.195,1.244-0.294,2.514-0.294,3.775
			c0,1.26,0.099,2.531,0.294,3.775l1.161,7.395H2.643V30.042z M11.731,29.096c0-0.592,0.481-1.073,1.072-1.073
			s1.073,0.481,1.073,1.073s-0.481,1.073-1.073,1.073S11.731,29.688,11.731,29.096L11.731,29.096z M21.69,15.907h16.556
			l1.776,11.317c-2.349-2.971-5.982-4.881-10.054-4.881s-7.705,1.91-10.053,4.881L21.69,15.907z M19.051,35.154
			c0-6.02,4.897-10.917,10.917-10.917s10.917,4.897,10.917,10.917c0,6.02-4.897,10.918-10.917,10.918S19.051,41.174,19.051,35.154
			L19.051,35.154z M42.59,38.93c0.195-1.244,0.295-2.516,0.295-3.775s-0.1-2.531-0.295-3.775l-0.209-1.336h14.913v16.282H41.43
			L42.59,38.93z M47.07,15.97c0-0.036,0.028-0.063,0.063-0.063h6.058c0.035,0,0.063,0.028,0.063,0.063v2.082H47.07V15.97z
			 M56.221,19.946c0.592,0,1.073,0.481,1.073,1.073v7.131h-15.21l-1.288-8.204H56.221z M24.383,11.868h11.17l1.609,2.145H22.774
			L24.383,11.868z M11.731,15.97c0-0.036,0.028-0.063,0.063-0.063h4.039c0.034,0,0.062,0.028,0.062,0.063v2.082h-4.165V15.97z
			 M4.726,16.917h2.02c0.035,0,0.063,0.028,0.063,0.063v1.073H4.663v-1.073C4.663,16.945,4.691,16.917,4.726,16.917L4.726,16.917z
			 M3.716,19.946H19.14l-1.287,8.204h-2.239c-0.396-1.173-1.506-2.02-2.811-2.02c-1.304,0-2.414,0.847-2.811,2.02h-7.35v-7.131
			C2.643,20.427,3.125,19.946,3.716,19.946L3.716,19.946z M2.643,49.291v-1.074h16.161l0.106,0.68
			c0.084,0.535,0.271,1.031,0.537,1.467H3.716C3.125,50.363,2.643,49.883,2.643,49.291L2.643,49.291z M23.911,50.363h-1.073
			c-1.032,0-1.897-0.74-2.057-1.76l-0.866-5.52c2.348,2.971,5.981,4.881,10.053,4.881s7.706-1.91,10.054-4.881l-0.866,5.52
			c-0.16,1.02-1.025,1.76-2.058,1.76H23.911z M56.221,50.363H40.49c0.266-0.436,0.452-0.932,0.536-1.467l0.106-0.68h16.161v1.074
			C57.294,49.883,56.812,50.363,56.221,50.363L56.221,50.363z M56.221,50.363"/>
	</g>
	<path display="inline" d="M29.968,44.18c4.976,0,9.024-4.049,9.024-9.025c0-4.976-4.048-9.024-9.024-9.024
		c-4.976,0-9.024,4.048-9.024,9.024C20.944,40.131,24.993,44.18,29.968,44.18L29.968,44.18z M29.968,28.023
		c3.932,0,7.131,3.2,7.131,7.131s-3.199,7.131-7.131,7.131c-3.932,0-7.131-3.199-7.131-7.131S26.037,28.023,29.968,28.023
		L29.968,28.023z M29.968,28.023"/>
	<path display="inline" d="M29.968,39.131c2.192,0,3.976-1.783,3.976-3.977s-1.784-3.977-3.976-3.977s-3.976,1.783-3.976,3.977
		S27.776,39.131,29.968,39.131L29.968,39.131z M29.968,33.072c1.149,0,2.083,0.934,2.083,2.082s-0.934,2.082-2.083,2.082
		c-1.148,0-2.083-0.934-2.083-2.082S28.82,33.072,29.968,33.072L29.968,33.072z M29.968,33.072"/>
</g>
<g>
	<path d="M52.556,10.465H39.76V8.739c0-2.661-2.165-4.826-4.825-4.826H24.729c-2.661,0-4.827,2.165-4.827,4.826v1.726H7.108
		c-3.506,0-6.358,2.852-6.358,6.356v29.725c0,3.507,2.852,6.358,6.358,6.358h45.447c3.507,0,6.358-2.852,6.358-6.358V16.821
		C58.914,13.316,56.062,10.465,52.556,10.465L52.556,10.465z M22.815,8.739c0-1.056,0.859-1.915,1.915-1.915h10.205
		c1.056,0,1.914,0.859,1.914,1.915v1.726H22.815V8.739z M7.108,13.376h45.447c1.899,0,3.445,1.546,3.445,3.445v26.558
		c-0.028-0.002-0.057-0.002-0.087-0.002c-3.451,0-6.261,2.808-6.261,6.26c0,0.119,0.004,0.236,0.011,0.357H10
		c0.007-0.121,0.011-0.238,0.011-0.357c0-3.452-2.809-6.26-6.262-6.26c-0.029,0-0.057,0-0.088,0.002V16.821
		C3.661,14.922,5.207,13.376,7.108,13.376L7.108,13.376z M3.661,46.546v-0.255c0.031-0.001,0.059-0.003,0.09-0.003
		c1.846,0,3.349,1.503,3.349,3.349c0,0.121-0.009,0.236-0.02,0.355C5.192,49.976,3.661,48.438,3.661,46.546L3.661,46.546z
		 M52.584,49.992c-0.011-0.119-0.018-0.234-0.018-0.355c0-1.846,1.501-3.349,3.348-3.349c0.03,0,0.059,0.002,0.087,0.003v0.255
		C56.001,48.438,54.472,49.976,52.584,49.992L52.584,49.992z M52.584,49.992"/>
	<path d="M12.226,40.983c0.257,0.643,0.75,1.147,1.386,1.417c0.326,0.142,0.671,0.211,1.016,0.211c0.328,0,0.655-0.062,0.966-0.188
		l3.136-1.26c1.299,2.417,3.857,4.002,6.675,4.002c4.176,0,7.572-3.396,7.572-7.569c0-4.176-3.396-7.571-7.572-7.571
		c-1.075,0-2.138,0.232-3.111,0.671l-2.04-5.079c-0.258-0.643-0.75-1.146-1.387-1.418c-0.635-0.272-1.34-0.28-1.982-0.021
		l-7.42,2.978c-0.642,0.257-1.145,0.75-1.417,1.386c-0.274,0.637-0.279,1.341-0.023,1.983L12.226,40.983z M25.406,32.938
		c2.569,0,4.659,2.09,4.659,4.659s-2.089,4.659-4.659,4.659c-1.625,0-3.106-0.857-3.943-2.188l1.551-0.622
		c1.326-0.531,1.972-2.043,1.438-3.369l-1.073-2.677C24.005,33.096,24.692,32.938,25.406,32.938L25.406,32.938z M17.673,27
		l3.958,9.861l-6.822,2.739l-3.959-9.863L17.673,27z M17.673,27"/>
	<path d="M38.812,35.451c0.23,0.566,0.774,0.906,1.349,0.906c0.183,0,0.369-0.035,0.55-0.107l8.128-3.326
		c1.443-0.592,2.572-1.711,3.176-3.152c0.604-1.439,0.611-3.029,0.02-4.475c-1.051-2.567-3.729-3.986-6.356-3.555
		c-0.627-0.892-1.491-1.591-2.521-2.022c-1.44-0.604-3.028-0.611-4.475-0.02c-1.445,0.591-2.574,1.71-3.177,3.151
		c-0.604,1.44-0.61,3.029-0.019,4.474L38.812,35.451z M38.188,23.977c0.305-0.723,0.87-1.285,1.595-1.581
		c0.359-0.147,0.737-0.22,1.112-0.22c0.385,0,0.77,0.077,1.135,0.229c0.723,0.303,1.284,0.869,1.581,1.596
		c0.147,0.357,0.43,0.642,0.786,0.79c0.355,0.149,0.757,0.152,1.112,0.005c1.498-0.612,3.215,0.107,3.829,1.605
		c0.297,0.725,0.293,1.522-0.011,2.245c-0.303,0.724-0.868,1.284-1.595,1.582l-6.778,2.774l-2.775-6.779
		C37.883,25.497,37.887,24.699,38.188,23.977L38.188,23.977z M38.188,23.977"/>
</g>
</svg>
