<?xml version="1.0" encoding="utf-8"?>
<!-- Generator: Adobe Illustrator 16.0.0, SVG Export Plug-In . SVG Version: 6.00 Build 0)  -->
<!DOCTYPE svg PUBLIC "-//W3C//DTD SVG 1.1//EN" "http://www.w3.org/Graphics/SVG/1.1/DTD/svg11.dtd">
<svg version="1.1" id="Layer_1" xmlns="http://www.w3.org/2000/svg" xmlns:xlink="http://www.w3.org/1999/xlink" x="0px" y="0px"
	 width="60px" height="60px" viewBox="0 0 60 60" enable-background="new 0 0 60 60" xml:space="preserve">
<g>
	<path stroke="#231F20" stroke-width="0.5" stroke-miterlimit="10" d="M54.812,47.066c-0.449-4.301-4.035-7.681-8.332-7.681
		c-2.684,0-5.219,1.351-6.783,3.564c-0.307-0.052-0.613-0.077-0.926-0.077c-2.431,0-4.588,1.65-5.304,3.986
		c-1.997,1.188-3.267,3.396-3.267,5.765c0,3.677,2.919,6.662,6.503,6.662h11.28c0.065,0,0.127-0.005,0.18-0.011
		c0.066,0.006,0.133,0.011,0.199,0.011h4.516c3.375,0,6.12-2.815,6.12-6.272C59,50.293,57.282,47.91,54.812,47.066L54.812,47.066z
		 M52.874,57.191l-4.558-0.006l-0.178-0.006L36.7,57.191c-2.429,0-4.401-2.051-4.401-4.566c0-1.744,0.99-3.359,2.53-4.122
		l0.455-0.219l0.106-0.501c0.344-1.633,1.77-2.817,3.381-2.817c0.362,0,0.722,0.062,1.068,0.181l0.812,0.271l0.43-0.747
		c1.146-1.994,3.165-3.188,5.398-3.188c3.42,0,6.233,2.879,6.281,6.412l0.014,0.854l0.834,0.159
		c1.912,0.374,3.293,2.096,3.293,4.105C56.908,55.314,55.1,57.191,52.874,57.191L52.874,57.191z"/>
	<path stroke="#231F20" stroke-width="0.5" stroke-miterlimit="10" d="M27.743,43.574c-0.865,0-1.713-0.016-2.547-0.047
		c-0.511-0.021-1.002-0.051-1.498-0.08c-0.307-0.016-0.624-0.031-0.927-0.053c-0.66-0.045-1.298-0.106-1.931-0.174
		c-0.118-0.016-0.246-0.021-0.364-0.035c-0.725-0.078-1.433-0.17-2.123-0.271c-0.016,0-0.035-0.005-0.051-0.005
		c-3.543-0.526-6.586-1.324-8.964-2.271c-0.015-0.006-0.025-0.011-0.041-0.016c-0.44-0.18-0.849-0.357-1.243-0.547
		c-0.04-0.021-0.091-0.041-0.139-0.062c-0.347-0.168-0.674-0.343-0.985-0.521c-0.078-0.041-0.154-0.082-0.225-0.128
		c-0.271-0.159-0.517-0.322-0.753-0.481c-0.091-0.065-0.183-0.128-0.271-0.188C5.483,38.548,5.304,38.4,5.13,38.246
		c-0.093-0.082-0.185-0.164-0.271-0.245c-0.138-0.14-0.262-0.271-0.379-0.409C4.4,37.495,4.318,37.396,4.252,37.3
		c-0.094-0.127-0.169-0.255-0.241-0.389c-0.056-0.103-0.107-0.203-0.153-0.306c-0.051-0.129-0.091-0.256-0.118-0.379
		c-0.041-0.175-0.086-0.343-0.086-0.511V27.12c0.03,0.032,0.065,0.056,0.097,0.083c0.231,0.199,0.46,0.397,0.727,0.593
		c3.941,2.986,11.832,5.308,23.266,5.308c11.387,0,19.251-2.302,23.213-5.268c0.316-0.23,0.604-0.464,0.871-0.71v9.117
		c0,0.577,0.47,1.049,1.047,1.049c0.579,0,1.05-0.472,1.05-1.049v-26.18c0-0.19-0.067-0.357-0.153-0.513
		c-1.211-4.494-10.238-8.911-26.026-8.911c-15.79,0-24.815,4.417-26.027,8.911c-0.087,0.155-0.154,0.323-0.154,0.513v38.75
		c0,0.168,0.046,0.326,0.123,0.471c1.191,5.058,11.194,8.037,20.744,8.754c0.025,0.005,0.051,0.005,0.077,0.005
		c0.543,0,1.003-0.419,1.044-0.966c0.046-0.578-0.389-1.079-0.967-1.126c-11.64-0.876-18.421-4.421-18.896-7.308
		c-0.005-0.053-0.021-0.093-0.03-0.14v-8.81c0.025,0.023,0.065,0.052,0.091,0.074c0.231,0.2,0.465,0.405,0.727,0.596
		c3.941,2.986,11.832,5.302,23.266,5.302c0.578,0,1.047-0.465,1.047-1.043C28.791,44.039,28.321,43.574,27.743,43.574L27.743,43.574
		z M4.288,15.088c0.311,0.245,0.654,0.491,1.022,0.727c0.078,0.051,0.159,0.097,0.242,0.148c0.306,0.188,0.634,0.378,0.976,0.563
		c0.128,0.065,0.25,0.132,0.384,0.203c0.383,0.195,0.783,0.385,1.207,0.567c0.067,0.026,0.127,0.062,0.199,0.088
		c0.492,0.208,1.013,0.408,1.555,0.603c0.152,0.051,0.306,0.102,0.459,0.153c0.434,0.143,0.879,0.288,1.341,0.419
		c0.168,0.05,0.332,0.096,0.5,0.147c0.615,0.169,1.249,0.327,1.913,0.477c0.087,0.024,0.19,0.041,0.281,0.062
		c0.584,0.127,1.191,0.245,1.815,0.357c0.21,0.036,0.425,0.071,0.645,0.107c0.593,0.097,1.201,0.185,1.831,0.266
		c0.159,0.027,0.316,0.046,0.48,0.067c0.779,0.097,1.586,0.174,2.414,0.246c0.205,0.015,0.414,0.03,0.624,0.041
		c0.66,0.051,1.34,0.092,2.031,0.123c0.256,0.009,0.506,0.02,0.762,0.03c0.905,0.03,1.825,0.052,2.777,0.052
		c0.951,0,1.871-0.022,2.775-0.052c0.256-0.01,0.506-0.021,0.762-0.03c0.689-0.031,1.371-0.072,2.029-0.123
		c0.211-0.016,0.42-0.026,0.625-0.041c0.828-0.066,1.636-0.148,2.412-0.246c0.164-0.021,0.322-0.041,0.48-0.067
		c0.629-0.081,1.238-0.169,1.832-0.266c0.22-0.036,0.436-0.072,0.645-0.107c0.625-0.112,1.231-0.23,1.814-0.357
		c0.092-0.021,0.193-0.037,0.281-0.062c0.664-0.149,1.3-0.308,1.912-0.477c0.168-0.051,0.332-0.098,0.5-0.147
		c0.461-0.132,0.906-0.277,1.34-0.419c0.154-0.051,0.308-0.102,0.461-0.153c0.542-0.195,1.062-0.395,1.555-0.603
		c0.071-0.027,0.133-0.062,0.199-0.088c0.425-0.183,0.822-0.373,1.206-0.567c0.134-0.071,0.261-0.138,0.384-0.203
		c0.343-0.185,0.669-0.37,0.977-0.563c0.082-0.051,0.164-0.097,0.239-0.148c0.369-0.236,0.712-0.481,1.023-0.727
		c0.077-0.067,0.147-0.128,0.225-0.19c0.14-0.112,0.281-0.225,0.406-0.341v8.594c0,0.169-0.041,0.338-0.084,0.513
		c-0.031,0.121-0.07,0.249-0.122,0.378c-0.041,0.101-0.094,0.203-0.148,0.306c-0.07,0.133-0.146,0.26-0.24,0.388
		c-0.07,0.098-0.147,0.194-0.229,0.292c-0.117,0.138-0.24,0.271-0.38,0.409c-0.086,0.083-0.179,0.164-0.274,0.246
		c-0.17,0.152-0.35,0.301-0.547,0.448c-0.088,0.062-0.18,0.124-0.271,0.19c-0.236,0.159-0.486,0.323-0.758,0.48
		c-0.07,0.045-0.143,0.086-0.221,0.129c-0.312,0.174-0.638,0.347-0.992,0.521c-0.039,0.021-0.092,0.041-0.138,0.062
		c-0.389,0.19-0.802,0.368-1.237,0.548c-0.015,0.004-0.024,0.01-0.041,0.016c-2.375,0.943-5.418,1.747-8.963,2.27
		c-0.021,0-0.035,0.005-0.057,0.005c-0.686,0.103-1.396,0.194-2.122,0.27c-0.116,0.015-0.239,0.021-0.358,0.037
		c-0.633,0.065-1.276,0.128-1.937,0.173c-0.303,0.021-0.614,0.037-0.922,0.051c-0.5,0.031-0.991,0.062-1.497,0.083
		c-0.834,0.025-1.682,0.041-2.546,0.041c-0.865,0-1.713-0.016-2.547-0.045c-0.511-0.017-1.002-0.052-1.498-0.082
		c-0.307-0.016-0.624-0.026-0.927-0.052c-0.66-0.045-1.298-0.107-1.931-0.174c-0.118-0.012-0.246-0.021-0.364-0.032
		c-0.725-0.082-1.433-0.172-2.123-0.27c-0.016-0.005-0.035-0.005-0.051-0.011c-3.543-0.521-6.586-1.324-8.964-2.27
		c-0.015-0.006-0.025-0.01-0.041-0.016c-0.44-0.174-0.849-0.357-1.243-0.542c-0.04-0.024-0.091-0.046-0.139-0.067
		c-0.347-0.168-0.674-0.341-0.985-0.521c-0.078-0.041-0.154-0.083-0.225-0.124c-0.271-0.158-0.517-0.322-0.753-0.485
		c-0.091-0.062-0.183-0.128-0.271-0.19c-0.198-0.147-0.377-0.295-0.551-0.443C5.039,25.6,4.947,25.52,4.861,25.432
		c-0.138-0.133-0.262-0.271-0.379-0.408c-0.081-0.099-0.164-0.196-0.229-0.292c-0.094-0.129-0.169-0.254-0.241-0.383
		c-0.056-0.103-0.107-0.209-0.153-0.312c-0.051-0.129-0.091-0.257-0.118-0.378C3.7,23.49,3.654,23.315,3.654,23.151v-8.594
		c0.127,0.112,0.271,0.224,0.409,0.336C4.14,14.96,4.207,15.021,4.288,15.088L4.288,15.088z M27.743,2.733
		c14.192,0,24.084,4.139,24.084,7.854c0,3.713-9.892,7.854-24.084,7.854c-14.195,0-24.084-4.141-24.084-7.854
		C3.659,6.872,13.548,2.733,27.743,2.733L27.743,2.733z"/>
</g>
</svg>
