<?xml version="1.0" encoding="utf-8"?>
<!-- Generator: Adobe Illustrator 16.0.0, SVG Export Plug-In . SVG Version: 6.00 Build 0)  -->
<!DOCTYPE svg PUBLIC "-//W3C//DTD SVG 1.1//EN" "http://www.w3.org/Graphics/SVG/1.1/DTD/svg11.dtd">
<svg version="1.1" id="Layer_1" xmlns="http://www.w3.org/2000/svg" xmlns:xlink="http://www.w3.org/1999/xlink" x="0px" y="0px"
	 width="60px" height="60px" viewBox="0 0 60 60" enable-background="new 0 0 60 60" xml:space="preserve">
<g>
	<path d="M37.053,42.533c0.487-0.651,0.355-1.571-0.295-2.057L30.98,36.15v-5.919c0-0.812-0.656-1.469-1.467-1.469
		c-0.812,0-1.47,0.657-1.47,1.469v5.919l-5.777,4.326c-0.649,0.485-0.782,1.406-0.295,2.057c0.487,0.648,1.408,0.78,2.056,0.295
		l5.486-4.106l5.485,4.106c0.264,0.197,0.572,0.293,0.879,0.293C36.323,43.121,36.766,42.917,37.053,42.533L37.053,42.533z
		 M37.053,42.533"/>
	<path d="M29.511,14.963c3.545,0,6.427-2.884,6.427-6.427c0-3.543-2.882-6.427-6.427-6.427c-3.543,0-6.425,2.884-6.425,6.427
		C23.086,12.08,25.968,14.963,29.511,14.963L29.511,14.963z M29.511,5.047c1.924,0,3.49,1.566,3.49,3.489
		c0,1.923-1.565,3.488-3.49,3.488c-1.923,0-3.488-1.565-3.488-3.488C26.023,6.613,27.588,5.047,29.511,5.047L29.511,5.047z
		 M29.511,5.047"/>
	<path d="M21.25,26.13h16.526c0.811,0,1.468-0.659,1.468-1.469v-3.623c0-2.661-2.163-4.822-4.822-4.822h-9.817
		c-2.66,0-4.823,2.162-4.823,4.822v3.623C19.781,25.473,20.438,26.13,21.25,26.13L21.25,26.13z M36.306,21.038v2.154H30.98v-4.04
		h3.44C35.46,19.152,36.306,19.999,36.306,21.038L36.306,21.038z M22.719,21.038c0-1.039,0.844-1.885,1.884-1.885h3.44v4.04h-5.324
		V21.038z M22.719,21.038"/>
	<path d="M13.408,47.328c3.544,0,6.426-2.883,6.426-6.428c0-3.543-2.882-6.425-6.426-6.425S6.982,37.357,6.982,40.9
		C6.982,44.445,9.864,47.328,13.408,47.328L13.408,47.328z M13.408,37.413c1.924,0,3.489,1.564,3.489,3.487
		c0,1.924-1.564,3.49-3.489,3.49c-1.923,0-3.489-1.566-3.489-3.49C9.919,38.978,11.485,37.413,13.408,37.413L13.408,37.413z
		 M13.408,37.413"/>
	<path d="M18.317,48.579H8.499c-2.658,0-4.822,2.164-4.822,4.822v3.623c0,0.812,0.657,1.47,1.47,1.47h16.524
		c0.812,0,1.47-0.657,1.47-1.47v-3.623C23.141,50.743,20.976,48.579,18.317,48.579L18.317,48.579z M6.615,53.401
		c0-1.038,0.846-1.884,1.884-1.884h3.44v4.04H6.615V53.401z M20.201,55.558h-5.324v-4.04h3.44c1.039,0,1.884,0.846,1.884,1.884
		V55.558z M20.201,55.558"/>
	<path d="M45.615,47.328c3.545,0,6.428-2.883,6.428-6.428c0-3.543-2.883-6.425-6.428-6.425c-3.543,0-6.427,2.882-6.427,6.425
		C39.188,44.445,42.072,47.328,45.615,47.328L45.615,47.328z M45.615,37.413c1.924,0,3.489,1.564,3.489,3.487
		c0,1.924-1.565,3.49-3.489,3.49c-1.923,0-3.487-1.566-3.487-3.49C42.128,38.978,43.692,37.413,45.615,37.413L45.615,37.413z
		 M45.615,37.413"/>
	<path d="M50.525,48.579h-9.818c-2.66,0-4.822,2.164-4.822,4.822v3.623c0,0.812,0.657,1.47,1.469,1.47h16.524
		c0.812,0,1.47-0.657,1.47-1.47v-3.623C55.348,50.743,53.184,48.579,50.525,48.579L50.525,48.579z M38.822,53.401
		c0-1.038,0.846-1.884,1.885-1.884h3.438v4.04h-5.323V53.401z M52.409,55.558h-5.324v-4.04h3.439c1.04,0,1.885,0.846,1.885,1.884
		V55.558z M52.409,55.558"/>
</g>
</svg>
