<?xml version="1.0" encoding="utf-8"?>
<!-- Generator: Adobe Illustrator 16.0.0, SVG Export Plug-In . SVG Version: 6.00 Build 0)  -->
<!DOCTYPE svg PUBLIC "-//W3C//DTD SVG 1.1//EN" "http://www.w3.org/Graphics/SVG/1.1/DTD/svg11.dtd">
<svg version="1.1" id="Layer_1" xmlns="http://www.w3.org/2000/svg" xmlns:xlink="http://www.w3.org/1999/xlink" x="0px" y="0px"
	 width="60px" height="60px" viewBox="0 0 60 60" enable-background="new 0 0 60 60" xml:space="preserve">
<g>
	<path stroke="#231F20" stroke-width="0.75" stroke-miterlimit="10" d="M57.354,43.895c-0.112-0.365-0.435-0.634-0.811-0.687
		l-7.77-1.089l-3.471-6.771c-0.34-0.668-1.438-0.668-1.774,0l-3.474,6.771l-7.766,1.089c-0.381,0.053-0.698,0.321-0.815,0.687
		c-0.117,0.367-0.01,0.767,0.27,1.03l5.6,5.263l-1.321,7.419c-0.064,0.372,0.087,0.754,0.39,0.978
		c0.303,0.229,0.712,0.263,1.048,0.088l6.958-3.522l6.956,3.522c0.146,0.072,0.298,0.112,0.453,0.112c0.21,0,0.42-0.068,0.596-0.2
		c0.303-0.224,0.454-0.601,0.391-0.978l-1.322-7.419l5.6-5.263C57.369,44.661,57.472,44.262,57.354,43.895L57.354,43.895z
		 M49.725,49.105c-0.243,0.228-0.356,0.565-0.298,0.896l1.064,5.98l-5.626-2.849c-0.141-0.067-0.297-0.107-0.453-0.107
		c-0.151,0-0.307,0.04-0.449,0.107l-5.624,2.849l1.063-5.98c0.059-0.331-0.054-0.669-0.298-0.896l-4.478-4.206l6.22-0.874
		c0.321-0.043,0.604-0.242,0.751-0.532l2.814-5.496l2.815,5.496c0.151,0.29,0.429,0.489,0.751,0.532l6.22,0.874L49.725,49.105z
		 M49.725,49.105"/>
</g>
<path stroke="#231F20" stroke-width="0.75" stroke-miterlimit="10" d="M47.412,13.99H29.431c-0.556,0-1,0.445-1,0.996
	c0,0.557,0.444,1,1,1h17.981c0.552,0,1.001-0.443,1.001-1C48.413,14.435,47.964,13.99,47.412,13.99L47.412,13.99z M47.412,13.99"/>
<path stroke="#231F20" stroke-width="0.75" stroke-miterlimit="10" d="M47.412,27.977H29.431c-0.556,0-1,0.443-1,0.999
	c0,0.553,0.444,0.996,1,0.996h17.981c0.552,0,1.001-0.443,1.001-0.996C48.413,28.42,47.964,27.977,47.412,27.977L47.412,27.977z
	 M47.412,27.977"/>
<path stroke="#231F20" stroke-width="0.75" stroke-miterlimit="10" d="M23.016,9.235c-0.419-0.361-1.048-0.312-1.409,0.107
	l-6.245,7.283l-3.815-2.863c-0.444-0.333-1.068-0.244-1.4,0.199c-0.331,0.439-0.239,1.064,0.199,1.395l4.567,3.424
	c0.18,0.138,0.39,0.202,0.599,0.202c0.284,0,0.561-0.117,0.761-0.347l6.85-7.995C23.484,10.225,23.436,9.595,23.016,9.235
	L23.016,9.235z M23.016,9.235"/>
<path stroke="#231F20" stroke-width="0.75" stroke-miterlimit="10" d="M23.016,23.22c-0.419-0.356-1.048-0.312-1.409,0.107
	l-6.245,7.283l-3.815-2.863c-0.444-0.333-1.068-0.244-1.4,0.2c-0.331,0.44-0.239,1.069,0.199,1.395l4.567,3.431
	c0.18,0.131,0.39,0.199,0.599,0.199c0.284,0,0.561-0.122,0.761-0.354l6.85-7.989C23.484,24.211,23.436,23.582,23.016,23.22
	L23.016,23.22z M23.016,23.22"/>
<path stroke="#231F20" stroke-width="0.75" stroke-miterlimit="10" d="M21.606,38.314l-6.245,7.283l-3.815-2.863
	c-0.444-0.333-1.068-0.244-1.4,0.198c-0.331,0.44-0.239,1.07,0.199,1.396l4.567,3.431c0.18,0.132,0.39,0.2,0.599,0.2
	c0.284,0,0.561-0.122,0.761-0.352l6.85-7.99c0.361-0.42,0.312-1.05-0.108-1.41C22.597,37.851,21.967,37.895,21.606,38.314
	L21.606,38.314z M21.606,38.314"/>
<path stroke="#231F20" stroke-width="0.75" stroke-miterlimit="10" d="M29.431,53.953H14.62c-5.61,0-10.166-4.562-10.166-10.165
	V14.166c0-5.609,4.556-10.167,10.166-10.167h29.622c5.604,0,10.166,4.558,10.166,10.167v23.879c0,0.558,0.443,1.001,0.995,1.001
	c0.556,0,1-0.443,1-1.001V14.166C56.403,7.458,50.949,2,44.242,2H14.62C7.913,2,2.454,7.458,2.454,14.166v29.622
	c0,6.708,5.459,12.16,12.167,12.16h14.811c0.551,0,0.995-0.442,0.995-1C30.426,54.398,29.982,53.953,29.431,53.953L29.431,53.953z
	 M29.431,53.953"/>
</svg>
