<?xml version="1.0" encoding="utf-8"?>
<!-- Generator: Adobe Illustrator 16.0.0, SVG Export Plug-In . SVG Version: 6.00 Build 0)  -->
<!DOCTYPE svg PUBLIC "-//W3C//DTD SVG 1.1//EN" "http://www.w3.org/Graphics/SVG/1.1/DTD/svg11.dtd">
<svg version="1.1" id="Layer_1" xmlns="http://www.w3.org/2000/svg" xmlns:xlink="http://www.w3.org/1999/xlink" x="0px" y="0px"
	 width="60px" height="60px" viewBox="0 0 60 60" enable-background="new 0 0 60 60" xml:space="preserve">
<g>
	<path stroke="#231F20" stroke-width="0.5" stroke-miterlimit="10" d="M57.32,50.858h-2.633V18.366h-0.021
		c0.558-0.733,0.9-1.642,0.9-2.632V2.562c0-0.485-0.395-0.879-0.879-0.879H5.512c-0.484,0-0.879,0.395-0.879,0.879v13.172
		c0,0.99,0.343,1.899,0.906,2.632H5.512v32.492H2.879C2.394,50.858,2,51.253,2,51.738v1.753c0,2.423,1.968,4.391,4.391,4.391h47.418
		c2.423,0,4.391-1.968,4.391-4.391v-1.753C58.199,51.253,57.805,50.858,57.32,50.858L57.32,50.858z M6.391,13.976h5.27v1.758
		c0,1.453-1.183,2.632-2.637,2.632c-1.449,0-2.632-1.179-2.632-2.632V13.976z M41.516,12.222V3.441h5.27v8.781H41.516z
		 M39.758,12.222h-5.266V3.441h5.266V12.222z M32.734,12.222h-5.27V3.441h5.27V12.222z M25.711,12.222h-5.27V3.441h5.27V12.222z
		 M18.684,12.222h-5.27V3.441h5.27V12.222z M13.414,13.976h5.27v1.758c0,1.453-1.179,2.632-2.633,2.632
		c-1.453,0-2.637-1.179-2.637-2.632V13.976z M20.441,13.976h5.27v1.758c0,1.453-1.183,2.632-2.637,2.632s-2.633-1.179-2.633-2.632
		V13.976z M27.465,13.976h5.27v1.758c0,1.453-1.184,2.632-2.633,2.632c-1.453,0-2.637-1.179-2.637-2.632V13.976z M34.492,13.976
		h5.266v1.758c0,1.453-1.18,2.632-2.633,2.632s-2.633-1.179-2.633-2.632V13.976z M41.516,13.976h5.27v1.758
		c0,1.453-1.184,2.632-2.637,2.632c-1.449,0-2.633-1.179-2.633-2.632V13.976z M48.539,13.976h5.27v1.758
		c0,1.453-1.179,2.632-2.633,2.632c-1.453,0-2.637-1.179-2.637-2.632V13.976z M53.809,12.222h-5.27V3.441h5.27V12.222z M6.391,3.441
		h5.27v8.781h-5.27V3.441z M7.27,19.751c0.541,0.236,1.132,0.374,1.753,0.374c1.441,0,2.714-0.708,3.517-1.784
		c0.797,1.076,2.07,1.784,3.511,1.784c1.44,0,2.71-0.708,3.512-1.784c0.801,1.076,2.071,1.784,3.512,1.784s2.714-0.708,3.512-1.784
		c0.802,1.076,2.075,1.784,3.516,1.784c1.441,0,2.71-0.708,3.512-1.784c0.802,1.076,2.071,1.784,3.512,1.784s2.71-0.708,3.512-1.784
		c0.802,1.076,2.071,1.784,3.512,1.784s2.714-0.708,3.516-1.784c0.798,1.076,2.071,1.784,3.512,1.784
		c0.626,0,1.218-0.137,1.754-0.374v31.107h-1.754V21.877c0-0.484-0.395-0.874-0.879-0.874H9.902c-0.484,0-0.879,0.39-0.879,0.874
		v28.981H7.27V19.751z M10.781,29.784h38.637v21.074H10.781V29.784z M10.781,28.026v-5.27h38.637v5.27H10.781z M56.445,53.491
		c0,1.453-1.184,2.638-2.637,2.638H6.391c-1.454,0-2.632-1.185-2.632-2.638v-0.879h52.687V53.491z M56.445,53.491"/>
	<path stroke="#231F20" stroke-width="0.5" stroke-miterlimit="10" d="M14.293,42.077h11.418c0.485,0,0.875-0.395,0.875-0.879
		v-7.902c0-0.484-0.39-0.879-0.875-0.879H14.293c-0.484,0-0.879,0.395-0.879,0.879v7.902C13.414,41.683,13.809,42.077,14.293,42.077
		L14.293,42.077z M15.172,34.176h4.391v1.753h1.758v-1.753h3.511v6.144h-9.66V34.176z M15.172,34.176"/>
	<path stroke="#231F20" stroke-width="0.5" stroke-miterlimit="10" d="M28.601,34.433c-0.163,0.162-0.257,0.386-0.257,0.617v8.781
		h-14.93v1.758h2.066c-0.193,0.398-0.308,0.846-0.308,1.316c0,1.693,1.381,3.074,3.074,3.074c1.694,0,3.075-1.381,3.075-3.074
		c0-0.471-0.121-0.918-0.31-1.316h2.372c-0.193,0.398-0.309,0.846-0.309,1.316c0,1.693,1.38,3.074,3.074,3.074
		s3.074-1.381,3.074-3.074c0-0.471-0.116-0.918-0.309-1.316h0.309c0.485,0,0.879-0.394,0.879-0.879v-9.296l2.376-2.375l-1.243-1.243
		L28.601,34.433z M19.562,46.905c0,0.729-0.592,1.316-1.316,1.316c-0.729,0-1.316-0.588-1.316-1.316
		c0-0.725,0.587-1.316,1.316-1.316C18.971,45.589,19.562,46.181,19.562,46.905L19.562,46.905z M27.465,46.905
		c0,0.729-0.592,1.316-1.316,1.316s-1.316-0.588-1.316-1.316c0-0.725,0.592-1.316,1.316-1.316S27.465,46.181,27.465,46.905
		L27.465,46.905z M27.465,46.905"/>
	<rect x="12.54" y="24.515" stroke="#231F20" stroke-width="0.5" stroke-miterlimit="10" width="1.754" height="1.754"/>
	<rect x="16.051" y="24.515" stroke="#231F20" stroke-width="0.5" stroke-miterlimit="10" width="1.754" height="1.754"/>
	<rect x="19.562" y="24.515" stroke="#231F20" stroke-width="0.5" stroke-miterlimit="10" width="1.758" height="1.754"/>
	<rect x="23.074" y="24.515" stroke="#231F20" stroke-width="0.5" stroke-miterlimit="10" width="17.562" height="1.754"/>
	<path stroke="#231F20" stroke-width="0.5" stroke-miterlimit="10" d="M46.588,44.217c0.21-0.206,0.301-0.506,0.24-0.798
		c-0.06-0.287-0.262-0.527-0.531-0.639l-6.213-2.481c-0.326-0.13-0.699-0.057-0.948,0.192c-0.248,0.248-0.321,0.621-0.192,0.947
		l2.482,6.209c0.111,0.274,0.352,0.477,0.639,0.535c0.061,0.014,0.12,0.018,0.18,0.018c0.228,0,0.455-0.09,0.618-0.256l1.243-1.239
		l2.667,2.661l1.239-1.239l-2.663-2.667L46.588,44.217z M42.566,45.761l-1.23-3.07l3.069,1.228L42.566,45.761z M42.566,45.761"/>
	<path stroke="#231F20" stroke-width="0.5" stroke-miterlimit="10" d="M37.125,35.929c1.453,0,2.633,1.184,2.633,2.638h1.758
		c0-2.422-1.968-4.391-4.391-4.391s-4.391,1.969-4.391,4.391c0,2.419,1.968,4.391,4.391,4.391v-1.759
		c-1.453,0-2.633-1.184-2.633-2.632C34.492,37.112,35.672,35.929,37.125,35.929L37.125,35.929z M37.125,35.929"/>
</g>
</svg>
