<?xml version="1.0" encoding="utf-8"?>
<!-- Generator: Adobe Illustrator 16.0.0, SVG Export Plug-In . SVG Version: 6.00 Build 0)  -->
<!DOCTYPE svg PUBLIC "-//W3C//DTD SVG 1.1//EN" "http://www.w3.org/Graphics/SVG/1.1/DTD/svg11.dtd">
<svg version="1.1" id="Layer_1" xmlns="http://www.w3.org/2000/svg" xmlns:xlink="http://www.w3.org/1999/xlink" x="0px" y="0px"
	 width="60px" height="60px" viewBox="0 0 60 60" enable-background="new 0 0 60 60" xml:space="preserve">
<g>
	<g>
		<defs>
			<rect id="SVGID_1_" x="0.833" y="8.68" width="58.167" height="43.775"/>
		</defs>
		<clipPath id="SVGID_2_">
			<use xlink:href="#SVGID_1_"  overflow="visible"/>
		</clipPath>
		<path clip-path="url(#SVGID_2_)" d="M43.47,20.624V10.14c0-0.546-0.297-1.033-0.783-1.282c-0.476-0.25-1.058-0.214-1.509,0.094
			c-10.425,7.207-16.408,8.133-20.457,8.133H9.145c-4.583,0-8.312,3.728-8.312,8.311v3.086c0,4.584,3.728,8.312,8.312,8.312h5.556
			l6.031,14.615c0.226,0.56,0.772,0.903,1.342,0.903c0.189,0,0.368-0.036,0.558-0.107c0.748-0.309,1.092-1.151,0.795-1.899
			l-5.58-13.512h2.862c14.105,0,19.875,7.468,20.136,7.812c0.285,0.381,0.712,0.595,1.164,0.595c0.154,0,0.309-0.023,0.45-0.071
			c0.593-0.202,0.998-0.748,0.998-1.377V33.28c2.885-0.665,5.033-3.241,5.033-6.329C48.516,23.865,46.355,21.277,43.47,20.624
			L43.47,20.624z M3.743,28.483v-3.086c0-2.98,2.422-5.402,5.402-5.402h5.081v13.891H9.145C6.165,33.886,3.743,31.464,3.743,28.483
			L3.743,28.483z M40.562,40.25c-3.229-2.659-9.571-6.364-19.852-6.364h-3.585V19.995h3.585c4.155,0,10.115-0.855,19.852-7.124
			V40.25z M43.47,30.217v-6.542c1.259,0.559,2.125,1.817,2.125,3.276C45.606,28.401,44.729,29.659,43.47,30.217L43.47,30.217z
			 M43.47,30.217"/>
	</g>
	<path d="M57.526,25.492H51.84c-0.807,0-1.461,0.653-1.461,1.459c0,0.808,0.654,1.462,1.461,1.462h5.687
		c0.809,0,1.461-0.654,1.461-1.462C58.987,26.133,58.335,25.492,57.526,25.492L57.526,25.492z M57.526,25.492"/>
	<path d="M49.821,22.429c0.227,0.569,0.772,0.925,1.354,0.925c0.177,0,0.355-0.035,0.534-0.095l5.509-2.161
		c0.747-0.297,1.116-1.14,0.819-1.888c-0.296-0.748-1.14-1.116-1.889-0.819l-5.508,2.161C49.905,20.837,49.536,21.68,49.821,22.429
		L49.821,22.429z M49.821,22.429"/>
	<path d="M57.219,32.781l-5.509-2.16c-0.749-0.297-1.593,0.072-1.889,0.819c-0.297,0.747,0.071,1.591,0.82,1.888l5.508,2.16
		c0.179,0.072,0.356,0.095,0.535,0.095c0.581,0,1.128-0.355,1.354-0.926C58.335,33.922,57.966,33.079,57.219,32.781L57.219,32.781z
		 M57.219,32.781"/>
</g>
</svg>
