<?xml version="1.0" encoding="utf-8"?>
<!-- Generator: Adobe Illustrator 16.0.0, SVG Export Plug-In . SVG Version: 6.00 Build 0)  -->
<!DOCTYPE svg PUBLIC "-//W3C//DTD SVG 1.1//EN" "http://www.w3.org/Graphics/SVG/1.1/DTD/svg11.dtd">
<svg version="1.1" id="Layer_1" xmlns="http://www.w3.org/2000/svg" xmlns:xlink="http://www.w3.org/1999/xlink" x="0px" y="0px"
	 width="60px" height="60px" viewBox="0 0 60 60" enable-background="new 0 0 60 60" xml:space="preserve">
<g>
	<path d="M31.759,48.948h-5.814l0.898-3.742h4.017L31.759,48.948L31.759,48.948z M50.143,34.119c-0.513,0-0.928,0.416-0.928,0.929
		v6.347c0,1.078-0.877,1.955-1.955,1.955H24.872c-0.513,0-0.928,0.415-0.928,0.928s0.416,0.929,0.928,0.929h0.062l-1.069,4.454
		c-0.066,0.276-0.002,0.567,0.174,0.791c0.176,0.224,0.445,0.354,0.729,0.354h12.543c0.513,0,0.929-0.415,0.929-0.929
		c0-0.513-0.416-0.928-0.929-0.928h-3.642l-0.898-3.742H47.26c2.102,0,3.812-1.71,3.812-3.812v-6.347
		C51.071,34.535,50.656,34.119,50.143,34.119L50.143,34.119z"/>
	<path d="M6.571,24.698c0.513,0,0.928-0.416,0.928-0.928v-8.861c0-1.078,0.877-1.956,1.956-1.956h30.467
		c0.513,0,0.929-0.416,0.929-0.929s-0.416-0.928-0.929-0.928H9.455c-2.102,0-3.812,1.71-3.812,3.812v8.861
		C5.642,24.283,6.058,24.698,6.571,24.698L6.571,24.698z"/>
	<path d="M24.624,41.251h22.842c0.513,0,0.928-0.416,0.928-0.929s-0.415-0.928-0.928-0.928H24.624c-0.513,0-0.928,0.415-0.928,0.928
		S24.111,41.251,24.624,41.251L24.624,41.251z"/>
	<path d="M40.851,15.979c0-0.513-0.416-0.928-0.929-0.928H9.25c-0.513,0-0.929,0.416-0.929,0.928s0.416,0.929,0.929,0.929h30.672
		C40.435,16.908,40.851,16.492,40.851,15.979L40.851,15.979z"/>
	<path d="M57.571,23.577c0.513,0,0.929-0.416,0.929-0.929V8.385c0-1.607-1.308-2.916-2.915-2.916H44.704
		c-1.607,0-2.916,1.308-2.916,2.916v21.972c0,1.608,1.308,2.916,2.916,2.916h10.881c1.607,0,2.915-1.308,2.915-2.916v-4.923
		c0-0.513-0.416-0.929-0.929-0.929s-0.928,0.416-0.928,0.929v4.923c0,0.584-0.476,1.059-1.059,1.059H44.704
		c-0.584,0-1.059-0.475-1.059-1.059V8.385c0-0.583,0.475-1.059,1.059-1.059h10.881c0.583,0,1.059,0.475,1.059,1.059v14.263
		C56.644,23.161,57.059,23.577,57.571,23.577L57.571,23.577z"/>
	<path d="M38.013,24.434l-2.306-2.306c-0.362-0.362-0.95-0.362-1.313,0c-0.362,0.363-0.362,0.951,0,1.313l0.722,0.721h-8.102
		c-0.513,0-0.928,0.416-0.928,0.928c0,0.513,0.416,0.929,0.928,0.929h8.102l-0.722,0.721c-0.362,0.363-0.362,0.951,0,1.313
		c0.182,0.181,0.419,0.271,0.657,0.271c0.237,0,0.475-0.09,0.656-0.271l2.306-2.306C38.375,25.384,38.375,24.796,38.013,24.434
		L38.013,24.434z"/>
	<path d="M38.284,31.651c0-0.513-0.415-0.929-0.928-0.929h-8.102l0.721-0.721c0.362-0.363,0.362-0.951,0-1.313
		c-0.363-0.363-0.951-0.363-1.313,0l-2.306,2.306c-0.174,0.174-0.272,0.411-0.272,0.657s0.098,0.482,0.272,0.656l2.306,2.306
		c0.181,0.182,0.419,0.272,0.656,0.272c0.238,0,0.476-0.091,0.657-0.272c0.362-0.362,0.362-0.95,0-1.312l-0.721-0.722h8.102
		C37.869,32.58,38.284,32.164,38.284,31.651L38.284,31.651z"/>
	<path d="M54.92,10.495h-9.552c-0.513,0-0.929,0.416-0.929,0.929s0.416,0.928,0.929,0.928h9.552c0.514,0,0.929-0.416,0.929-0.928
		S55.434,10.495,54.92,10.495L54.92,10.495z"/>
	<path d="M55.849,27.319c0-0.513-0.415-0.929-0.929-0.929h-9.552c-0.513,0-0.929,0.416-0.929,0.929c0,0.513,0.416,0.928,0.929,0.928
		h9.552C55.434,28.247,55.849,27.832,55.849,27.319L55.849,27.319z"/>
	<path d="M19.852,25.697H3.916C2.308,25.697,1,27.005,1,28.613v5.527c0,0.513,0.416,0.929,0.928,0.929
		c0.513,0,0.929-0.416,0.929-0.929v-5.527c0-0.583,0.475-1.059,1.059-1.059h15.936c0.584,0,1.059,0.475,1.059,1.059v21.972
		c0,0.583-0.475,1.059-1.059,1.059H3.916c-0.584,0-1.059-0.476-1.059-1.059V37.008c0-0.513-0.416-0.929-0.929-0.929
		C1.416,36.079,1,36.495,1,37.008v13.577C1,52.192,2.308,53.5,3.916,53.5h15.936c1.608,0,2.916-1.308,2.916-2.915V28.613
		C22.767,27.005,21.459,25.697,19.852,25.697L19.852,25.697z"/>
	<path d="M4.368,32.58h15.032c0.513,0,0.928-0.416,0.928-0.929s-0.416-0.929-0.928-0.929H4.368c-0.513,0-0.928,0.416-0.928,0.929
		S3.855,32.58,4.368,32.58L4.368,32.58z"/>
	<path d="M4.368,48.475h15.032c0.513,0,0.928-0.416,0.928-0.929s-0.416-0.928-0.928-0.928H4.368c-0.513,0-0.928,0.415-0.928,0.928
		S3.855,48.475,4.368,48.475L4.368,48.475z"/>
	<path d="M50.145,28.887c0.513,0,0.928,0.416,0.928,0.928s-0.415,0.929-0.928,0.929s-0.929-0.416-0.929-0.929
		S49.632,28.887,50.145,28.887L50.145,28.887z"/>
	<path d="M11.883,49.167c0.513,0,0.929,0.416,0.929,0.929s-0.416,0.929-0.929,0.929s-0.928-0.416-0.928-0.929
		S11.371,49.167,11.883,49.167L11.883,49.167z"/>
</g>
</svg>
