<?xml version="1.0" encoding="utf-8"?>
<!-- Generator: Adobe Illustrator 16.0.0, SVG Export Plug-In . SVG Version: 6.00 Build 0)  -->
<!DOCTYPE svg PUBLIC "-//W3C//DTD SVG 1.1//EN" "http://www.w3.org/Graphics/SVG/1.1/DTD/svg11.dtd">
<svg version="1.1" id="Layer_1" xmlns="http://www.w3.org/2000/svg" xmlns:xlink="http://www.w3.org/1999/xlink" x="0px" y="0px"
	 width="60px" height="60px" viewBox="0 0 60 60" enable-background="new 0 0 60 60" xml:space="preserve">
<g>
	<path d="M38.399,41.131c1.442-1.849,2.312-4.178,2.312-6.712c0-2.528-0.865-4.853-2.302-6.7c4.529,2.082,7.431,5.339,8.501,6.702
		C45.843,35.787,42.944,39.052,38.399,41.131L38.399,41.131z M30,42.979c-4.643,0-8.419-3.841-8.419-8.561s3.777-8.561,8.419-8.561
		s8.419,3.841,8.419,8.561S34.643,42.979,30,42.979L30,42.979z M13.09,34.417c1.068-1.366,3.966-4.631,8.511-6.71
		c-1.443,1.849-2.312,4.178-2.312,6.712c0,2.528,0.865,4.853,2.302,6.699C17.062,39.037,14.16,35.779,13.09,34.417L13.09,34.417z
		 M49.291,33.79C49.017,33.373,42.432,23.567,30,23.567S10.983,33.373,10.709,33.79l-0.413,0.629l0.413,0.629
		C10.983,35.465,17.568,45.271,30,45.271s19.017-9.806,19.291-10.223l0.413-0.629L49.291,33.79L49.291,33.79z"/>
	<path d="M30,36.087c-0.897,0-1.627-0.748-1.627-1.668S29.103,32.75,30,32.75s1.627,0.749,1.627,1.669S30.897,36.087,30,36.087
		L30,36.087z M30,30.459c-2.161,0-3.918,1.776-3.918,3.96c0,2.183,1.758,3.96,3.918,3.96c2.161,0,3.919-1.777,3.919-3.96
		C33.919,32.235,32.161,30.459,30,30.459L30,30.459z"/>
	<polygon points="50.625,7.083 52.917,7.083 52.917,9.375 50.625,9.375 50.625,7.083 	"/>
	<polygon points="46.042,7.083 48.333,7.083 48.333,9.375 46.042,9.375 46.042,7.083 	"/>
	<polygon points="41.458,7.083 43.75,7.083 43.75,9.375 41.458,9.375 41.458,7.083 	"/>
	<polygon points="8.229,7.083 38.021,7.083 38.021,9.375 8.229,9.375 8.229,7.083 	"/>
	<path d="M55.208,11.667H4.792V4.792h50.417V11.667L55.208,11.667z M55.208,55.208H4.792v-41.25h50.417V55.208L55.208,55.208z
		 M2.5,2.5v55h55v-55H2.5L2.5,2.5z"/>
	<polygon points="28.854,17.231 31.146,17.231 31.146,20.669 28.854,20.669 28.854,17.231 	"/>
	<polygon points="38.174,22.549 39.893,19.572 41.877,20.717 40.159,23.694 38.174,22.549 	"/>
	<polygon points="18.124,20.721 20.108,19.575 21.827,22.552 19.842,23.698 18.124,20.721 	"/>
	<polygon points="28.854,48.333 31.146,48.333 31.146,51.771 28.854,51.771 28.854,48.333 	"/>
	<polygon points="38.176,46.448 40.16,45.302 41.879,48.278 39.895,49.425 38.176,46.448 	"/>
	<polygon points="18.128,48.277 19.846,45.301 21.831,46.446 20.113,49.424 18.128,48.277 	"/>
</g>
</svg>
