<?xml version="1.0" encoding="utf-8"?>
<!-- Generator: Adobe Illustrator 16.0.0, SVG Export Plug-In . SVG Version: 6.00 Build 0)  -->
<!DOCTYPE svg PUBLIC "-//W3C//DTD SVG 1.1//EN" "http://www.w3.org/Graphics/SVG/1.1/DTD/svg11.dtd">
<svg version="1.1" id="Layer_1" xmlns="http://www.w3.org/2000/svg" xmlns:xlink="http://www.w3.org/1999/xlink" x="0px" y="0px"
	 width="125px" height="36px" viewBox="0 0 125 36" enable-background="new 0 0 125 36" xml:space="preserve">
<g>
	<path fill="#FFFFFF" d="M20.566,3.576l-1.363,7.731h-5.3L10.56,30.264H2.83l3.342-18.957H0.834l1.364-7.731H20.566z"/>
	<path fill="#FFFFFF" d="M22.677,9.135h9.977l-1.052,5.963h-1.546l-1.623,9.202h1.546l-1.052,5.963h-9.977l1.052-5.963h1.509
		l1.623-9.202h-1.509L22.677,9.135z"/>
	<path fill="#FFFFFF" d="M50.59,18.89c-0.329,1.03-0.835,1.987-1.519,2.871c-0.683,0.885-1.468,1.646-2.353,2.283
		c-0.886,0.64-1.852,1.135-2.896,1.49c-1.044,0.357-2.095,0.534-3.149,0.534c-0.124,0-0.283,0-0.479,0
		c-0.197,0-0.354-0.012-0.472-0.037l-0.747,4.232h-6.92l3.726-21.128h6.552c1.4,0,2.679,0.184,3.841,0.551
		c1.162,0.368,2.136,0.903,2.921,1.602c0.784,0.699,1.349,1.565,1.695,2.596c0.346,1.03,0.404,2.196,0.176,3.498
		C50.871,17.922,50.746,18.424,50.59,18.89z M43.9,17.583c0.077-0.437-0.018-0.806-0.283-1.109
		c-0.266-0.304-0.632-0.456-1.098-0.456h-1.03l-0.558,3.165h1.03c0.466,0,0.885-0.15,1.258-0.453
		C43.592,18.426,43.819,18.045,43.9,17.583z"/>
	<path fill="#FFFFFF" d="M62.692,8.914c1.034-0.024,2.079,0.033,3.136,0.166c1.057,0.137,2.161,0.413,3.316,0.83
		c-0.074,0.27-0.132,0.497-0.176,0.681c-0.046,0.184-0.085,0.375-0.12,0.57c-0.048,0.271-0.15,0.786-0.31,1.547
		c-0.158,0.761-0.428,1.938-0.806,3.535c-0.67-0.246-1.297-0.479-1.884-0.701c-0.587-0.22-1.25-0.392-1.988-0.515
		c-0.498-0.097-0.936-0.122-1.312-0.073s-0.65,0.135-0.819,0.257c-0.168,0.124-0.223,0.258-0.164,0.406
		c0.061,0.147,0.269,0.257,0.624,0.331l2.438,0.994c0.688,0.271,1.305,0.607,1.846,1.012c0.543,0.406,1.001,0.865,1.377,1.382
		c0.376,0.515,0.637,1.084,0.784,1.711c0.147,0.626,0.155,1.306,0.027,2.043c-0.158,1.028-0.494,1.963-1.01,2.798
		c-0.514,0.834-1.146,1.565-1.896,2.19c-0.749,0.627-1.603,1.129-2.566,1.509c-0.963,0.381-1.97,0.631-3.022,0.755
		c-0.152,0.022-0.375,0.041-0.673,0.056c-0.297,0.011-0.592,0.018-0.887,0.018c-0.618,0.023-1.205,0.012-1.76-0.037
		c-0.556-0.049-1.048-0.111-1.477-0.186c-0.445-0.119-0.964-0.274-1.557-0.459c-0.594-0.184-1.386-0.461-2.376-0.827l2.734-6.738
		c0.513,0.149,1.006,0.314,1.476,0.498c0.471,0.184,0.94,0.375,1.41,0.571c0.467,0.197,0.947,0.367,1.436,0.516
		c0.49,0.148,1.01,0.257,1.562,0.33c0.201-0.022,0.382-0.073,0.542-0.146c0.161-0.073,0.282-0.207,0.367-0.404
		c0.029-0.171-0.006-0.319-0.107-0.442c-0.101-0.121-0.23-0.233-0.383-0.333c-0.154-0.098-0.331-0.183-0.526-0.258
		c-0.195-0.073-0.375-0.132-0.538-0.182c-0.918-0.223-1.737-0.583-2.459-1.088c-0.721-0.502-1.317-1.085-1.79-1.748
		c-0.472-0.662-0.807-1.373-1.004-2.134c-0.197-0.761-0.228-1.522-0.094-2.283c0.2-1.275,0.794-2.454,1.782-3.533
		c0.989-1.081,2.378-1.829,4.169-2.246c0.464-0.124,0.915-0.215,1.356-0.276C61.809,8.946,62.25,8.914,62.692,8.914z"/>
	<path fill="#D60037" d="M87.869,9.135l-1.168,6.626h-4.232l-2.56,14.502h-6.92l2.557-14.502h-4.269l1.169-6.626H87.869z"/>
	<path fill="#D60037" d="M103.531,23.86l-1.128,6.403H86.868l3.719-21.091h15.534l-1.13,6.405h-8.612l-0.254,1.436h7.214
		l-0.959,5.447h-7.217l-0.246,1.399H103.531z"/>
	<path fill="#D60037" d="M124.158,30.264h-7.437c-0.809-1.543-1.439-2.691-1.896-3.44c-0.458-0.749-0.8-1.251-1.024-1.51
		c-0.224-0.259-0.367-0.342-0.431-0.259c-0.066,0.088-0.105,0.178-0.124,0.277l-0.87,4.932h-6.919l3.726-21.128h8.466
		c1.005,0,1.949,0.22,2.828,0.663c0.879,0.442,1.6,1.02,2.161,1.731c0.65,0.76,1.095,1.625,1.327,2.595
		c0.234,0.969,0.263,1.957,0.085,2.963c-0.182,1.031-0.562,2.05-1.146,3.055c-0.582,1.007-1.338,1.914-2.266,2.726L124.158,30.264z
		 M117.364,17.014c0.076-0.442-0.014-0.823-0.276-1.142c-0.263-0.318-0.628-0.479-1.095-0.479h-1.067l-0.57,3.238h1.066
		c0.466,0,0.888-0.158,1.263-0.479C117.061,17.834,117.285,17.454,117.364,17.014z"/>
</g>
</svg>
