<?xml version="1.0" encoding="utf-8"?>
<!-- Generator: Adobe Illustrator 16.0.0, SVG Export Plug-In . SVG Version: 6.00 Build 0)  -->
<!DOCTYPE svg PUBLIC "-//W3C//DTD SVG 1.1//EN" "http://www.w3.org/Graphics/SVG/1.1/DTD/svg11.dtd">
<svg version="1.1" id="Layer_1" xmlns="http://www.w3.org/2000/svg" xmlns:xlink="http://www.w3.org/1999/xlink" x="0px" y="0px"
	 width="66px" height="66px" viewBox="0 0 66 66" enable-background="new 0 0 66 66" xml:space="preserve">
<g id="SOCIAL_NETW_9_">
	<g>
		<g id="Twitter_9_">
			<path fill="#FFFFFF" d="M57.99,18.026c-1.773,0.78-3.688,1.318-5.688,1.554c2.051-1.214,3.618-3.166,4.358-5.475
				c-1.916,1.127-4.037,1.958-6.291,2.4c-1.807-1.929-4.381-3.125-7.229-3.125c-5.46,0-9.905,4.424-9.905,9.905
				c0,0.777,0.085,1.52,0.263,2.25c-8.222-0.402-15.519-4.348-20.407-10.337c-0.852,1.463-1.341,3.167-1.341,4.973
				c0,3.432,1.747,6.458,4.402,8.246c-1.628-0.047-3.155-0.501-4.486-1.25v0.135c0,4.793,3.409,8.795,7.956,9.704
				c-0.841,0.233-1.712,0.356-2.618,0.356c-0.628,0-1.257-0.076-1.865-0.185c1.267,3.938,4.912,6.808,9.25,6.876
				c-3.389,2.661-7.642,4.232-12.3,4.232c-0.801,0-1.588-0.051-2.372-0.119c4.392,2.797,9.594,4.445,15.195,4.445
				c18.206,0,28.171-15.098,28.171-28.186c0-0.426-0.01-0.846-0.02-1.27C54.988,21.752,56.66,20.007,57.99,18.026z"/>
		</g>
	</g>
</g>
</svg>
