<?xml version="1.0" encoding="utf-8"?>
<!-- Generator: Adobe Illustrator 16.0.0, SVG Export Plug-In . SVG Version: 6.00 Build 0)  -->
<!DOCTYPE svg PUBLIC "-//W3C//DTD SVG 1.1//EN" "http://www.w3.org/Graphics/SVG/1.1/DTD/svg11.dtd">
<svg version="1.1" id="Layer_1" xmlns="http://www.w3.org/2000/svg" xmlns:xlink="http://www.w3.org/1999/xlink" x="0px" y="0px"
	 width="66px" height="66px" viewBox="0 0 66 66" enable-background="new 0 0 66 66" xml:space="preserve">
<g id="SOCIAL_NETW_9_">
	<g>
		<g id="Instagram_9_">
			<g>
				<path fill="#FFFFFF" d="M17.347,12.124h31.066c2.933,0,5.357,2.406,5.357,5.356v31.07c0,2.936-2.425,5.324-5.357,5.324H17.347
					c-2.952,0-5.357-2.389-5.357-5.324V17.48C11.989,14.53,14.395,12.124,17.347,12.124z M42.424,16.754
					c-1.027,0-1.893,0.856-1.893,1.889v4.503c0,1.032,0.865,1.88,1.893,1.88h4.709c1.047,0,1.898-0.848,1.898-1.88v-4.503
					c0-1.032-0.852-1.889-1.898-1.889H42.424z M49.038,29.775h-3.669c0.348,1.144,0.537,2.353,0.537,3.596
					c0,6.939-5.813,12.58-12.985,12.58c-7.169,0-12.983-5.641-12.983-12.58c0-1.243,0.183-2.453,0.541-3.596h-3.838v17.664
					c0,0.896,0.733,1.65,1.655,1.65H47.39c0.905,0,1.648-0.754,1.648-1.65V29.775z M32.921,24.786c-4.629,0-8.389,3.649-8.389,8.125
					c0,4.484,3.76,8.143,8.389,8.143c4.638,0,8.395-3.659,8.395-8.143C41.315,28.435,37.559,24.786,32.921,24.786z"/>
			</g>
		</g>
	</g>
</g>
</svg>
