<?xml version="1.0" encoding="utf-8"?>
<!-- Generator: Adobe Illustrator 16.0.0, SVG Export Plug-In . SVG Version: 6.00 Build 0)  -->
<!DOCTYPE svg PUBLIC "-//W3C//DTD SVG 1.1//EN" "http://www.w3.org/Graphics/SVG/1.1/DTD/svg11.dtd">
<svg version="1.1" id="Layer_1" xmlns="http://www.w3.org/2000/svg" xmlns:xlink="http://www.w3.org/1999/xlink" x="0px" y="0px"
	 width="66px" height="66px" viewBox="0 0 66 66" enable-background="new 0 0 66 66" xml:space="preserve">
<g id="SOCIAL_NETW_9_">
	<g>
		<g id="G_x2B__9_">
			<g>
				<path fill="#FFFFFF" d="M21.278,28.994v8.013c0,0,7.773-0.011,10.936-0.011c-1.713,5.199-4.371,8.027-10.936,8.027
					c-6.642,0-11.83-5.387-11.83-12.023c0-6.64,5.188-12.02,11.83-12.02c3.504,0,5.777,1.226,7.848,2.947
					c1.676-1.666,1.53-1.898,5.767-5.895c-3.591-3.278-8.367-5.27-13.614-5.27C10.1,12.763,1.043,21.827,1.043,33
					c0,11.186,9.057,20.242,20.235,20.242c16.716,0,20.793-14.55,19.429-24.249C36.754,28.994,21.278,28.994,21.278,28.994z
					 M57.747,29.389V22.38h-5.021v7.008h-7.206v5.02h7.206v7.207h5.021v-7.207h7.017v-5.02H57.747z"/>
			</g>
		</g>
	</g>
</g>
</svg>
