<?xml version="1.0" encoding="utf-8"?>
<!-- Generator: Adobe Illustrator 16.0.0, SVG Export Plug-In . SVG Version: 6.00 Build 0)  -->
<!DOCTYPE svg PUBLIC "-//W3C//DTD SVG 1.1//EN" "http://www.w3.org/Graphics/SVG/1.1/DTD/svg11.dtd">
<svg version="1.1" id="Layer_1" xmlns="http://www.w3.org/2000/svg" xmlns:xlink="http://www.w3.org/1999/xlink" x="0px" y="0px"
	 width="66px" height="66px" viewBox="0 0 66 66" enable-background="new 0 0 66 66" xml:space="preserve">
<g id="SOCIAL_NETW_9_">
	<g>
		<g id="Pinterest_9_">
			<path fill="#FFFFFF" d="M32.923,7.004c-14.344,0-25.992,11.638-25.992,26.009c0,10.629,6.412,19.789,15.563,23.807
				c-0.067-1.824-0.007-4.018,0.453-5.98c0.507-2.111,3.337-14.162,3.337-14.162s-0.831-1.656-0.831-4.12
				c0-3.845,2.25-6.731,5.018-6.731c2.364,0,3.503,1.791,3.503,3.917c0,2.361-1.521,5.918-2.277,9.206
				c-0.672,2.76,1.372,5.027,4.085,5.027c4.932,0,8.246-6.342,8.246-13.828c0-5.697-3.828-9.968-10.801-9.968
				c-7.908,0-12.81,5.88-12.81,12.454c0,2.265,0.658,3.865,1.716,5.097c0.493,0.574,0.544,0.787,0.361,1.449
				c-0.111,0.494-0.408,1.629-0.533,2.096c-0.159,0.645-0.696,0.885-1.298,0.638c-3.625-1.476-5.324-5.452-5.324-9.918
				c0-7.39,6.236-16.248,18.581-16.248c9.935,0,16.458,7.184,16.458,14.89c0,10.201-5.679,17.812-14.026,17.812
				c-2.787,0-5.445-1.523-6.341-3.24c0,0-1.517,5.988-1.831,7.158c-0.544,1.99-1.635,4.004-2.618,5.562
				c2.338,0.684,4.808,1.064,7.361,1.064c14.351,0,25.992-11.643,25.992-25.982C58.915,18.643,47.273,7.004,32.923,7.004z"/>
		</g>
	</g>
</g>
</svg>
