<?xml version="1.0" encoding="utf-8"?>
<!-- Generator: Adobe Illustrator 16.0.0, SVG Export Plug-In . SVG Version: 6.00 Build 0)  -->
<!DOCTYPE svg PUBLIC "-//W3C//DTD SVG 1.1//EN" "http://www.w3.org/Graphics/SVG/1.1/DTD/svg11.dtd">
<svg version="1.1" id="Layer_1" xmlns="http://www.w3.org/2000/svg" xmlns:xlink="http://www.w3.org/1999/xlink" x="0px" y="0px"
	 width="32px" height="32px" viewBox="0 0 32 32" enable-background="new 0 0 32 32" xml:space="preserve">
<g>
	<path d="M10.439,10.074h4.065c0.302,0,0.545-0.244,0.545-0.544V5.465c0-0.302-0.243-0.545-0.545-0.545h-4.065
		c-0.301,0-0.544,0.243-0.544,0.545V9.53C9.895,9.831,10.139,10.074,10.439,10.074z M10.984,6.008h2.977v2.977h-2.977V6.008z"/>
	<path d="M17.555,10.074h4.065c0.301,0,0.544-0.244,0.544-0.544V5.465c0-0.302-0.243-0.545-0.544-0.545h-4.065
		c-0.302,0-0.545,0.243-0.545,0.545V9.53C17.01,9.831,17.253,10.074,17.555,10.074z M18.1,6.008h2.978v2.977H18.1V6.008z"/>
	<path d="M14.504,17.335c0.302,0,0.545-0.244,0.545-0.544v-4.067c0-0.3-0.243-0.544-0.545-0.544h-4.065
		c-0.301,0-0.544,0.244-0.544,0.544v4.067c0,0.3,0.244,0.544,0.544,0.544H14.504z M10.984,13.269h2.977v2.976h-2.977V13.269z"/>
	<path d="M17.555,17.335h4.065c0.301,0,0.544-0.244,0.544-0.544v-4.067c0-0.3-0.243-0.544-0.544-0.544h-4.065
		c-0.302,0-0.545,0.244-0.545,0.544v4.067C17.01,17.091,17.253,17.335,17.555,17.335z M18.1,13.269h2.978v2.976H18.1V13.269z"/>
	<path d="M30.797,7.533h-5.945V1.734c0-0.301-0.244-0.544-0.545-0.544H7.753c-0.3,0-0.544,0.244-0.544,0.544v5.799H1.262
		c-0.301,0-0.543,0.244-0.543,0.544v3.778v4.066v3.195v4.065v6.571c0,0.302,0.243,0.545,0.543,0.545h6.491h16.552h6.491
		c0.302,0,0.545-0.243,0.545-0.545v-6.571v-4.065v-3.195v-4.066V8.077C31.342,7.777,31.098,7.533,30.797,7.533z M1.807,12.4h2.977
		v2.977H1.807V12.4z M1.807,19.66h2.977v2.976H1.807V19.66z M7.209,29.211H1.807v-5.484h3.522c0.3,0,0.544-0.244,0.544-0.545v-4.063
		c0-0.302-0.244-0.545-0.544-0.545H1.807v-2.105h3.522c0.3,0,0.544-0.244,0.544-0.544v-4.066c0-0.3-0.244-0.544-0.544-0.544H1.807
		V8.622h5.402V29.211z M18.303,29.211h-4.546v-7.919h4.546V29.211z M23.762,8.077v21.134h-4.371v-8.464
		c0-0.3-0.242-0.544-0.545-0.544h-5.632c-0.302,0-0.545,0.244-0.545,0.544v8.464h-4.37V8.077V2.279h15.463V8.077z M30.253,22.636
		h-2.978V19.66h2.978V22.636z M30.253,15.376h-2.978V12.4h2.978V15.376z M30.253,11.311H26.73c-0.301,0-0.545,0.244-0.545,0.544
		v4.066c0,0.3,0.244,0.544,0.545,0.544h3.521v2.105H26.73c-0.301,0-0.545,0.244-0.545,0.545v4.064c0,0.301,0.244,0.545,0.545,0.545
		h3.521v5.483H24.85V8.622h5.402L30.253,11.311L30.253,11.311z"/>
</g>
</svg>
