<?xml version="1.0" encoding="utf-8"?>
<!-- Generator: Adobe Illustrator 16.0.0, SVG Export Plug-In . SVG Version: 6.00 Build 0)  -->
<!DOCTYPE svg PUBLIC "-//W3C//DTD SVG 1.1//EN" "http://www.w3.org/Graphics/SVG/1.1/DTD/svg11.dtd">
<svg version="1.1" id="Layer_1" xmlns="http://www.w3.org/2000/svg" xmlns:xlink="http://www.w3.org/1999/xlink" x="0px" y="0px"
	 width="32px" height="32px" viewBox="0 0 32 32" enable-background="new 0 0 32 32" xml:space="preserve">
<g>
	<g>
		<path fill="#FFFFFF" d="M30.945,16.788c0.113,0.085,0.248,0.128,0.384,0.128c0.097,0,0.194-0.022,0.285-0.067
			c0.217-0.108,0.353-0.329,0.353-0.57v-2.564c0-0.201-0.094-0.39-0.255-0.511l-2.964-2.223c0-0.009,0.002-0.017,0.002-0.025V5.47
			c0-0.353-0.287-0.638-0.639-0.638H23.69c-0.354,0-0.639,0.286-0.639,0.638v1.235l-6.658-4.996c-0.227-0.17-0.54-0.17-0.767,0
			L0.31,13.203c-0.161,0.121-0.255,0.311-0.255,0.511v2.564c0,0.241,0.136,0.462,0.353,0.57s0.475,0.085,0.669-0.061l0.255-0.191
			V29.69H0.638C0.286,29.69,0,29.976,0,30.328s0.286,0.639,0.638,0.639h30.689c0.353,0,0.639-0.286,0.639-0.639
			s-0.286-0.638-0.639-0.638H30.69V16.597L30.945,16.788z M24.328,6.108h3.145v3.914l-3.145-2.36V6.108z M1.332,14.033l14.68-11.016
			L30.69,14.033v0.968L16.394,4.272c-0.113-0.085-0.248-0.127-0.383-0.127s-0.27,0.042-0.384,0.127L1.332,15.001V14.033z
			 M18.513,29.69h-5.06c0.002-0.021,0.003-0.042,0.003-0.062V18.899h5.052v10.729C18.509,29.648,18.51,29.67,18.513,29.69
			L18.513,29.69z M29.414,15.776V29.69h-9.632c0.002-0.021,0.003-0.042,0.003-0.062V18.262c0-0.352-0.285-0.639-0.638-0.639h-6.329
			c-0.353,0-0.639,0.287-0.639,0.639v11.366c0,0.021,0.001,0.042,0.003,0.062H2.608V15.776c0-0.044-0.005-0.086-0.013-0.127
			L16.011,5.581l13.416,10.067C29.419,15.69,29.414,15.732,29.414,15.776L29.414,15.776z M29.414,15.776"/>
	</g>
	<path fill="#FFFFFF" d="M14.746,23.938c-0.168,0-0.333,0.068-0.451,0.188c-0.119,0.118-0.187,0.283-0.187,0.451
		s0.068,0.332,0.187,0.451c0.119,0.118,0.283,0.187,0.451,0.187s0.333-0.068,0.451-0.187c0.119-0.119,0.188-0.283,0.188-0.451
		s-0.069-0.332-0.188-0.451C15.079,24.007,14.914,23.938,14.746,23.938L14.746,23.938z M14.746,23.938"/>
	<path fill="#FFFFFF" d="M12.783,12.471c0,1.764,1.435,3.199,3.199,3.199c1.765,0,3.199-1.436,3.199-3.199
		c0-1.764-1.435-3.2-3.199-3.2C14.218,9.271,12.783,10.707,12.783,12.471L12.783,12.471z M15.982,14.394
		c-0.836,0-1.549-0.537-1.813-1.285h3.627C17.532,13.857,16.819,14.394,15.982,14.394L15.982,14.394z M17.796,11.833h-3.627
		c0.264-0.748,0.977-1.285,1.813-1.285C16.819,10.548,17.532,11.085,17.796,11.833L17.796,11.833z M17.796,11.833"/>
	<path fill="#FFFFFF" d="M10.278,25.26v-6.998c0-0.352-0.286-0.639-0.638-0.639H5.163c-0.353,0-0.639,0.287-0.639,0.639v6.999
		c-0.344,0.009-0.62,0.29-0.62,0.637c0,0.353,0.287,0.639,0.639,0.639h5.724c0.353,0,0.639-0.286,0.639-0.639
		C10.905,25.549,10.625,25.267,10.278,25.26L10.278,25.26z M9.002,18.899v1.277H5.801v-1.277H9.002z M5.801,25.259v-3.806h3.201
		v3.806H5.801z M5.801,25.259"/>
	<path fill="#FFFFFF" d="M21.758,26.536h5.725c0.353,0,0.639-0.286,0.639-0.639c0-0.348-0.278-0.629-0.623-0.638v-6.998
		c0-0.352-0.286-0.639-0.639-0.639h-4.478c-0.353,0-0.638,0.287-0.638,0.639v6.998c-0.346,0.009-0.624,0.29-0.624,0.638
		C21.12,26.25,21.406,26.536,21.758,26.536L21.758,26.536z M23.02,25.259v-3.806h3.202v3.806H23.02z M26.222,18.899v1.277H23.02
		v-1.277H26.222z M26.222,18.899"/>
</g>
</svg>
