<?xml version="1.0" encoding="utf-8"?>
<!-- Generator: Adobe Illustrator 16.0.0, SVG Export Plug-In . SVG Version: 6.00 Build 0)  -->
<!DOCTYPE svg PUBLIC "-//W3C//DTD SVG 1.1//EN" "http://www.w3.org/Graphics/SVG/1.1/DTD/svg11.dtd">
<svg version="1.1" id="Layer_1" xmlns="http://www.w3.org/2000/svg" xmlns:xlink="http://www.w3.org/1999/xlink" x="0px" y="0px"
	 width="32px" height="32px" viewBox="0 0 32 32" enable-background="new 0 0 32 32" xml:space="preserve">
<g>
	<g>
		<path d="M30.945,16.788c0.113,0.085,0.248,0.128,0.384,0.128c0.097,0,0.194-0.021,0.284-0.066c0.218-0.107,0.354-0.33,0.354-0.571
			v-2.564c0-0.201-0.094-0.39-0.255-0.511l-2.964-2.223c0-0.009,0.002-0.017,0.002-0.025V5.47c0-0.353-0.287-0.638-0.639-0.638
			h-4.422c-0.354,0-0.64,0.286-0.64,0.638v1.235l-6.658-4.996c-0.227-0.17-0.54-0.17-0.767,0L0.31,13.203
			c-0.161,0.121-0.255,0.311-0.255,0.511v2.564c0,0.242,0.136,0.462,0.353,0.57c0.217,0.108,0.475,0.086,0.669-0.061l0.255-0.191
			v13.094H0.638C0.286,29.689,0,29.977,0,30.328s0.286,0.639,0.638,0.639h30.689c0.353,0,0.639-0.285,0.639-0.639
			s-0.286-0.639-0.639-0.639h-0.638V16.598L30.945,16.788z M24.328,6.108h3.145v3.914l-3.145-2.36V6.108z M1.332,14.033
			l14.68-11.016l14.677,11.016v0.968L16.394,4.272c-0.113-0.085-0.248-0.127-0.383-0.127c-0.135,0-0.27,0.042-0.384,0.127
			L1.332,15.001V14.033z M18.514,29.689h-5.061c0.002-0.021,0.003-0.041,0.003-0.062V18.898h5.052v10.729
			C18.509,29.648,18.51,29.67,18.514,29.689L18.514,29.689z M29.414,15.776v13.914h-9.632c0.002-0.021,0.003-0.041,0.003-0.062
			V18.262c0-0.352-0.285-0.639-0.639-0.639h-6.33c-0.353,0-0.639,0.287-0.639,0.639v11.366c0,0.021,0.001,0.042,0.003,0.062H2.608
			V15.776c0-0.044-0.005-0.086-0.013-0.127L16.011,5.581l13.416,10.067C29.419,15.69,29.414,15.732,29.414,15.776L29.414,15.776z"/>
	</g>
	<path d="M14.746,23.938c-0.168,0-0.333,0.068-0.451,0.188c-0.119,0.118-0.187,0.283-0.187,0.451s0.068,0.332,0.187,0.45
		c0.119,0.119,0.283,0.188,0.451,0.188s0.333-0.068,0.451-0.188c0.119-0.118,0.188-0.282,0.188-0.45s-0.069-0.332-0.188-0.451
		C15.079,24.007,14.914,23.938,14.746,23.938L14.746,23.938z"/>
	<path d="M12.783,12.471c0,1.764,1.435,3.199,3.199,3.199c1.765,0,3.2-1.436,3.2-3.199c0-1.764-1.436-3.2-3.2-3.2
		S12.783,10.707,12.783,12.471L12.783,12.471z M15.982,14.394c-0.836,0-1.549-0.537-1.813-1.285h3.627
		C17.532,13.857,16.818,14.394,15.982,14.394L15.982,14.394z M17.796,11.833h-3.627c0.264-0.748,0.977-1.285,1.813-1.285
		C16.818,10.548,17.532,11.085,17.796,11.833L17.796,11.833z"/>
	<path d="M10.278,25.26v-6.998c0-0.352-0.286-0.639-0.638-0.639H5.163c-0.353,0-0.639,0.287-0.639,0.639v6.999
		c-0.344,0.009-0.62,0.29-0.62,0.638c0,0.354,0.287,0.64,0.639,0.64h5.724c0.353,0,0.639-0.286,0.639-0.64
		C10.905,25.549,10.625,25.268,10.278,25.26L10.278,25.26z M9.002,18.898v1.276H5.801v-1.276H9.002z M5.801,25.259v-3.806h3.201
		v3.806H5.801z"/>
	<path d="M21.758,26.536h5.725c0.354,0,0.641-0.286,0.641-0.64c0-0.349-0.277-0.629-0.623-0.639V18.26
		c0-0.352-0.286-0.639-0.641-0.639h-4.478c-0.353,0-0.638,0.287-0.638,0.639v6.998c-0.346,0.01-0.624,0.29-0.624,0.639
		C21.12,26.25,21.406,26.536,21.758,26.536L21.758,26.536z M23.02,25.259v-3.806h3.203v3.806H23.02z M26.223,18.898v1.276H23.02
		v-1.276H26.223z"/>
</g>
</svg>
