<?xml version="1.0" encoding="utf-8"?>
<!-- Generator: Adobe Illustrator 16.0.0, SVG Export Plug-In . SVG Version: 6.00 Build 0)  -->
<!DOCTYPE svg PUBLIC "-//W3C//DTD SVG 1.1//EN" "http://www.w3.org/Graphics/SVG/1.1/DTD/svg11.dtd">
<svg version="1.1" id="Layer_1" xmlns="http://www.w3.org/2000/svg" xmlns:xlink="http://www.w3.org/1999/xlink" x="0px" y="0px"
	 width="32px" height="32px" viewBox="0 0 32 32" enable-background="new 0 0 32 32" xml:space="preserve">
<g>
	<path fill="#FFFFFF" d="M16.01,8.373c-4.792,0-8.688,3.898-8.688,8.689c0,4.79,3.897,8.688,8.688,8.688
		c4.791,0,8.688-3.898,8.688-8.688C24.698,12.271,20.801,8.373,16.01,8.373z M16.01,24.732c-4.229,0-7.67-3.441-7.67-7.67
		c0-4.23,3.441-7.67,7.67-7.67c4.229,0,7.67,3.44,7.67,7.67C23.68,21.291,20.239,24.732,16.01,24.732z"/>
	<path fill="#FFFFFF" d="M31.129,5.124c-0.162-0.089-0.361-0.083-0.52,0.017c-0.152,0.098-3.767,2.497-3.767,10.5
		c0,0.282,0.229,0.509,0.51,0.509h3.022v9.635c0,0.28,0.228,0.509,0.51,0.509c0.281,0,0.509-0.229,0.509-0.509V15.642V14.95V5.571
		C31.394,5.385,31.293,5.213,31.129,5.124z M27.867,15.133c0.075-3.58,0.931-5.846,1.651-7.132c0.298-0.53,0.597-0.939,0.856-1.246
		v8.195v0.183H27.867z"/>
	<path fill="#FFFFFF" d="M5.754,5.061c-0.281,0-0.509,0.228-0.509,0.51v6.384c0,0.093-0.077,0.17-0.17,0.17H3.818V5.571
		c0-0.282-0.228-0.51-0.509-0.51c-0.282,0-0.51,0.228-0.51,0.51v6.554H1.543c-0.094,0-0.169-0.077-0.169-0.17V5.571
		c0-0.282-0.229-0.51-0.509-0.51c-0.282,0-0.51,0.228-0.51,0.51v6.384c0,0.655,0.533,1.189,1.188,1.189h1.256v12.642
		c0,0.28,0.228,0.509,0.51,0.509c0.281,0,0.509-0.229,0.509-0.509V13.144h1.256c0.656,0,1.188-0.534,1.188-1.189V5.571
		C6.263,5.289,6.035,5.061,5.754,5.061z"/>
</g>
</svg>
