<?xml version="1.0" encoding="utf-8"?>
<!-- Generator: Adobe Illustrator 16.0.0, SVG Export Plug-In . SVG Version: 6.00 Build 0)  -->
<!DOCTYPE svg PUBLIC "-//W3C//DTD SVG 1.1//EN" "http://www.w3.org/Graphics/SVG/1.1/DTD/svg11.dtd">
<svg version="1.1" id="Layer_1" xmlns="http://www.w3.org/2000/svg" xmlns:xlink="http://www.w3.org/1999/xlink" x="0px" y="0px"
	 width="32px" height="32px" viewBox="0 0 32 32" enable-background="new 0 0 32 32" xml:space="preserve">
<g>
	<path fill="#FFFFFF" d="M26.448,6.847h-2.183V4.712C24.266,2.665,22.601,1,20.554,1h-9.108C9.399,1,7.734,2.665,7.734,4.712v2.135
		H5.552c-2.701,0-4.899,2.197-4.899,4.899v13.617c0,2.701,2.198,4.898,4.899,4.898h20.896c2.701,0,4.899-2.197,4.899-4.898V11.747
		C31.348,9.044,29.149,6.847,26.448,6.847L26.448,6.847z M9.311,4.712c0-1.177,0.958-2.136,2.135-2.136h9.108
		c1.178,0,2.136,0.958,2.136,2.136v2.135H9.311V4.712z M29.771,25.363c0,1.832-1.49,3.322-3.322,3.322H5.552
		c-1.832,0-3.323-1.49-3.323-3.322V11.747c0-1.833,1.491-3.323,3.323-3.323h20.896c1.832,0,3.322,1.49,3.322,3.323V25.363z
		 M21.244,15.569h-2.259V13.31c0-0.894-0.727-1.621-1.621-1.621h-2.729c-0.894,0-1.622,0.728-1.622,1.621v2.259h-2.259
		c-0.894,0-1.621,0.728-1.621,1.621v2.73c0,0.893,0.727,1.619,1.621,1.619h2.259v2.26c0,0.895,0.728,1.621,1.622,1.621h2.729
		c0.895,0,1.621-0.727,1.621-1.621v-2.26h2.259c0.895,0,1.621-0.727,1.621-1.619v-2.73C22.865,16.296,22.139,15.569,21.244,15.569
		L21.244,15.569z M21.289,19.92c0,0.021-0.021,0.043-0.045,0.043h-3.047c-0.436,0-0.789,0.354-0.789,0.789v3.047
		c0,0.023-0.021,0.045-0.044,0.045h-2.729c-0.023,0-0.044-0.021-0.044-0.045v-3.047c0-0.436-0.353-0.789-0.788-0.789h-3.048
		c-0.022,0-0.044-0.021-0.044-0.043v-2.73c0-0.021,0.022-0.045,0.044-0.045h3.048c0.435,0,0.788-0.352,0.788-0.788V13.31
		c0-0.022,0.021-0.044,0.044-0.044h2.729c0.022,0,0.044,0.021,0.044,0.044v3.047c0,0.436,0.354,0.788,0.789,0.788h3.047
		c0.023,0,0.045,0.023,0.045,0.045V19.92z M21.289,19.92"/>
</g>
</svg>
