<?xml version="1.0" encoding="utf-8"?>
<!-- Generator: Adobe Illustrator 16.0.0, SVG Export Plug-In . SVG Version: 6.00 Build 0)  -->
<!DOCTYPE svg PUBLIC "-//W3C//DTD SVG 1.1//EN" "http://www.w3.org/Graphics/SVG/1.1/DTD/svg11.dtd">
<svg version="1.1" id="Layer_1" xmlns="http://www.w3.org/2000/svg" xmlns:xlink="http://www.w3.org/1999/xlink" x="0px" y="0px"
	 width="32px" height="32px" viewBox="0 0 32 32" enable-background="new 0 0 32 32" xml:space="preserve">
<g>
	<path d="M11.057,14.788c0,0.341-0.276,0.617-0.618,0.617c-0.339,0-0.616-0.276-0.616-0.617c0-0.34,0.277-0.616,0.616-0.616
		C10.781,14.171,11.057,14.447,11.057,14.788L11.057,14.788z"/>
	<path d="M14.755,14.788c0,0.341-0.276,0.617-0.617,0.617c-0.34,0-0.616-0.276-0.616-0.617c0-0.34,0.276-0.616,0.616-0.616
		C14.479,14.171,14.755,14.447,14.755,14.788L14.755,14.788z"/>
	<path d="M18.452,14.788c0,0.341-0.275,0.617-0.616,0.617s-0.615-0.276-0.615-0.617c0-0.34,0.274-0.616,0.615-0.616
		S18.452,14.447,18.452,14.788L18.452,14.788z"/>
	<path d="M7.358,18.486c0,0.34-0.275,0.615-0.617,0.615c-0.339,0-0.616-0.275-0.616-0.615c0-0.344,0.276-0.618,0.616-0.618
		C7.083,17.868,7.358,18.145,7.358,18.486L7.358,18.486z"/>
	<path d="M11.056,18.486c0,0.34-0.275,0.615-0.617,0.615c-0.339,0-0.615-0.275-0.615-0.615c0-0.344,0.276-0.618,0.615-0.618
		C10.781,17.868,11.056,18.145,11.056,18.486L11.056,18.486z"/>
	<path d="M14.755,18.486c0,0.34-0.277,0.615-0.617,0.615c-0.34,0-0.616-0.275-0.616-0.615c0-0.344,0.276-0.618,0.616-0.618
		C14.478,17.868,14.755,18.145,14.755,18.486L14.755,18.486z"/>
	<path d="M18.452,18.486c0,0.34-0.275,0.615-0.616,0.615s-0.615-0.275-0.615-0.615c0-0.344,0.274-0.618,0.615-0.618
		S18.452,18.145,18.452,18.486L18.452,18.486z"/>
	<path d="M25.848,18.486c0,0.34-0.273,0.615-0.615,0.615c-0.34,0-0.614-0.275-0.614-0.615c0-0.344,0.274-0.618,0.614-0.618
		C25.573,17.868,25.848,18.145,25.848,18.486L25.848,18.486z"/>
	<path d="M22.15,14.788c0,0.341-0.275,0.617-0.617,0.617s-0.616-0.276-0.616-0.617c0-0.34,0.274-0.616,0.616-0.616
		C21.875,14.171,22.15,14.447,22.15,14.788L22.15,14.788z"/>
	<path d="M25.85,14.788c0,0.341-0.275,0.617-0.617,0.617c-0.34,0-0.615-0.276-0.615-0.617c0-0.34,0.275-0.616,0.615-0.616
		C25.572,14.171,25.85,14.447,25.85,14.788L25.85,14.788z"/>
	<path d="M7.358,22.184c0,0.34-0.275,0.616-0.617,0.616c-0.339,0-0.616-0.276-0.616-0.616s0.276-0.617,0.616-0.617
		C7.083,21.564,7.358,21.844,7.358,22.184L7.358,22.184z"/>
	<path d="M11.057,22.184c0,0.34-0.276,0.616-0.618,0.616c-0.339,0-0.616-0.276-0.616-0.616s0.277-0.617,0.616-0.617
		C10.781,21.564,11.057,21.844,11.057,22.184L11.057,22.184z"/>
	<path d="M14.755,22.184c0,0.34-0.276,0.616-0.617,0.616c-0.34,0-0.616-0.276-0.616-0.616s0.276-0.617,0.616-0.617
		C14.479,21.564,14.755,21.844,14.755,22.184L14.755,22.184z"/>
	<path d="M18.452,22.184c0,0.34-0.275,0.616-0.616,0.616s-0.615-0.276-0.615-0.616s0.274-0.617,0.615-0.617
		S18.452,21.844,18.452,22.184L18.452,22.184z"/>
	<path d="M22.15,22.184c0,0.34-0.275,0.616-0.617,0.616s-0.616-0.276-0.616-0.616s0.274-0.617,0.616-0.617
		C21.875,21.564,22.15,21.844,22.15,22.184L22.15,22.184z"/>
	<path d="M25.85,22.184c0,0.34-0.275,0.616-0.617,0.616c-0.34,0-0.615-0.276-0.615-0.616s0.275-0.617,0.615-0.617
		C25.572,21.564,25.85,21.844,25.85,22.184L25.85,22.184z"/>
	<path d="M7.358,25.883c0,0.338-0.275,0.616-0.617,0.616c-0.339,0-0.616-0.278-0.616-0.616c0-0.342,0.276-0.617,0.616-0.617
		C7.083,25.266,7.358,25.541,7.358,25.883L7.358,25.883z"/>
	<path d="M11.057,25.883c0,0.338-0.276,0.616-0.618,0.616c-0.339,0-0.616-0.278-0.616-0.616c0-0.342,0.277-0.617,0.616-0.617
		C10.781,25.266,11.057,25.541,11.057,25.883L11.057,25.883z"/>
	<path d="M14.755,25.883c0,0.338-0.276,0.616-0.617,0.616c-0.34,0-0.616-0.278-0.616-0.616c0-0.342,0.276-0.617,0.616-0.617
		C14.479,25.266,14.755,25.541,14.755,25.883L14.755,25.883z"/>
	<path d="M18.452,25.883c0,0.338-0.275,0.616-0.616,0.616s-0.615-0.278-0.615-0.616c0-0.342,0.274-0.617,0.615-0.617
		S18.452,25.541,18.452,25.883L18.452,25.883z"/>
	<g>
		<path d="M21.533,20.334c1.021,0,1.85-0.827,1.85-1.848c0-1.022-0.828-1.852-1.85-1.852s-1.85,0.827-1.85,1.852
			C19.686,19.507,20.512,20.334,21.533,20.334L21.533,20.334z M21.533,17.868c0.342,0,0.617,0.278,0.617,0.618
			c0,0.338-0.275,0.615-0.617,0.615c-0.34,0-0.616-0.277-0.616-0.615C20.917,18.146,21.193,17.868,21.533,17.868L21.533,17.868z"/>
		<path d="M28.314,4.323h-1.233V3.706c0-1.021-0.829-1.849-1.849-1.849c-1.022,0-1.852,0.828-1.852,1.849v0.617H8.59V3.706
			c0-1.021-0.828-1.849-1.849-1.849S4.893,2.685,4.893,3.706v0.617H3.66c-1.361,0-2.465,1.104-2.465,2.465v22.176
			c0,1.361,1.104,2.464,2.465,2.464h24.654c1.358,0,2.463-1.103,2.463-2.464V6.788C30.777,5.427,29.675,4.323,28.314,4.323
			L28.314,4.323z M24.615,5.555V3.706c0-0.34,0.275-0.616,0.617-0.616c0.34,0,0.615,0.275,0.615,0.616v2.466
			c0,0.34-0.275,0.616-0.615,0.616c-0.342,0-0.617-0.276-0.617-0.616V5.555z M6.126,5.555V3.706c0-0.34,0.276-0.616,0.616-0.616
			c0.341,0,0.617,0.275,0.617,0.616v2.466c0,0.34-0.275,0.616-0.617,0.616c-0.34,0-0.616-0.276-0.616-0.616V5.555z M29.546,28.964
			c0,0.679-0.552,1.231-1.231,1.231H3.66c-0.681,0-1.232-0.553-1.232-1.231v-18.49h27.118V28.964z M29.546,9.241H2.428V6.788
			c0-0.681,0.551-1.233,1.232-1.233h1.233v0.617c0,1.021,0.828,1.849,1.849,1.849s1.85-0.828,1.85-1.849V5.555h14.792v0.617
			c0,1.021,0.827,1.849,1.851,1.849c1.021,0,1.85-0.828,1.85-1.849V5.555h1.232c0.681,0,1.23,0.552,1.23,1.233L29.546,9.241
			L29.546,9.241z"/>
	</g>
</g>
</svg>
